<svg width="30" height="30" viewBox="0 0 30 30" fill="none" xmlns="http://www.w3.org/2000/svg">
<path d="M10 16C10.827 16 11.5 15.327 11.5 14.5C11.5 13.673 10.827 13 10 13C9.173 13 8.5 13.673 8.5 14.5C8.5 15.327 9.173 16 10 16ZM10 14C10.1326 14 10.2598 14.0527 10.3536 14.1464C10.4473 14.2402 10.5 14.3674 10.5 14.5C10.5 14.6326 10.4473 14.7598 10.3536 14.8536C10.2598 14.9473 10.1326 15 10 15C9.86739 15 9.74021 14.9473 9.64645 14.8536C9.55268 14.7598 9.5 14.6326 9.5 14.5C9.5 14.3674 9.55268 14.2402 9.64645 14.1464C9.74021 14.0527 9.86739 14 10 14ZM15 16C15.827 16 16.5 15.327 16.5 14.5C16.5 13.673 15.827 13 15 13C14.173 13 13.5 13.673 13.5 14.5C13.5 15.327 14.173 16 15 16ZM15 14C15.1326 14 15.2598 14.0527 15.3536 14.1464C15.4473 14.2402 15.5 14.3674 15.5 14.5C15.5 14.6326 15.4473 14.7598 15.3536 14.8536C15.2598 14.9473 15.1326 15 15 15C14.8674 15 14.7402 14.9473 14.6464 14.8536C14.5527 14.7598 14.5 14.6326 14.5 14.5C14.5 14.3674 14.5527 14.2402 14.6464 14.1464C14.7402 14.0527 14.8674 14 15 14ZM5 21C5.827 21 6.5 20.327 6.5 19.5C6.5 18.673 5.827 18 5 18C4.173 18 3.5 18.673 3.5 19.5C3.5 20.327 4.173 21 5 21ZM5 19C5.13261 19 5.25979 19.0527 5.35355 19.1464C5.44732 19.2402 5.5 19.3674 5.5 19.5C5.5 19.6326 5.44732 19.7598 5.35355 19.8536C5.25979 19.9473 5.13261 20 5 20C4.86739 20 4.74021 19.9473 4.64645 19.8536C4.55268 19.7598 4.5 19.6326 4.5 19.5C4.5 19.3674 4.55268 19.2402 4.64645 19.1464C4.74021 19.0527 4.86739 19 5 19ZM10 21C10.827 21 11.5 20.327 11.5 19.5C11.5 18.673 10.827 18 10 18C9.173 18 8.5 18.673 8.5 19.5C8.5 20.327 9.173 21 10 21ZM10 19C10.1326 19 10.2598 19.0527 10.3536 19.1464C10.4473 19.2402 10.5 19.3674 10.5 19.5C10.5 19.6326 10.4473 19.7598 10.3536 19.8536C10.2598 19.9473 10.1326 20 10 20C9.86739 20 9.74021 19.9473 9.64645 19.8536C9.55268 19.7598 9.5 19.6326 9.5 19.5C9.5 19.3674 9.55268 19.2402 9.64645 19.1464C9.74021 19.0527 9.86739 19 10 19ZM5 26C5.827 26 6.5 25.327 6.5 24.5C6.5 23.673 5.827 23 5 23C4.173 23 3.5 23.673 3.5 24.5C3.5 25.327 4.173 26 5 26ZM5 24C5.13261 24 5.25979 24.0527 5.35355 24.1464C5.44732 24.2402 5.5 24.3674 5.5 24.5C5.5 24.6326 5.44732 24.7598 5.35355 24.8536C5.25979 24.9473 5.13261 25 5 25C4.86739 25 4.74021 24.9473 4.64645 24.8536C4.55268 24.7598 4.5 24.6326 4.5 24.5C4.5 24.3674 4.55268 24.2402 4.64645 24.1464C4.74021 24.0527 4.86739 24 5 24ZM15 23C14.173 23 13.5 23.673 13.5 24.5C13.5 25.327 14.173 26 15 26C15.827 26 16.5 25.327 16.5 24.5C16.5 23.673 15.827 23 15 23ZM15 25C14.8674 25 14.7402 24.9473 14.6464 24.8536C14.5527 24.7598 14.5 24.6326 14.5 24.5C14.5 24.3674 14.5527 24.2402 14.6464 24.1464C14.7402 24.0527 14.8674 24 15 24C15.1326 24 15.2598 24.0527 15.3536 24.1464C15.4473 24.2402 15.5 24.3674 15.5 24.5C15.5 24.6326 15.4473 24.7598 15.3536 24.8536C15.2598 24.9473 15.1326 25 15 25ZM25 21C25.827 21 26.5 20.327 26.5 19.5C26.5 18.673 25.827 18 25 18C24.173 18 23.5 18.673 23.5 19.5C23.5 20.327 24.173 21 25 21ZM25 19C25.1326 19 25.2598 19.0527 25.3536 19.1464C25.4473 19.2402 25.5 19.3674 25.5 19.5C25.5 19.6326 25.4473 19.7598 25.3536 19.8536C25.2598 19.9473 25.1326 20 25 20C24.8674 20 24.7402 19.9473 24.6464 19.8536C24.5527 19.7598 24.5 19.6326 24.5 19.5C24.5 19.3674 24.5527 19.2402 24.6464 19.1464C24.7402 19.0527 24.8674 19 25 19ZM25 16C25.827 16 26.5 15.327 26.5 14.5C26.5 13.673 25.827 13 25 13C24.173 13 23.5 13.673 23.5 14.5C23.5 15.327 24.173 16 25 16ZM25 14C25.1326 14 25.2598 14.0527 25.3536 14.1464C25.4473 14.2402 25.5 14.3674 25.5 14.5C25.5 14.6326 25.4473 14.7598 25.3536 14.8536C25.2598 14.9473 25.1326 15 25 15C24.8674 15 24.7402 14.9473 24.6464 14.8536C24.5527 14.7598 24.5 14.6326 24.5 14.5C24.5 14.3674 24.5527 14.2402 24.6464 14.1464C24.7402 14.0527 24.8674 14 25 14Z" fill="#C60311"/>
<path d="M6.5 24.501C6.5 23.674 5.827 23.001 5 23.001C4.173 23.001 3.5 23.674 3.5 24.501C3.5 25.328 4.173 26.001 5 26.001C5.827 26.001 6.5 25.328 6.5 24.501ZM16.5 24.501C16.5 23.674 15.827 23.001 15 23.001C14.173 23.001 13.5 23.674 13.5 24.501C13.5 25.328 14.173 26.001 15 26.001C15.827 26.001 16.5 25.328 16.5 24.501ZM5.2998 24.501C5.2998 24.4214 5.26817 24.3453 5.21191 24.2891C5.15565 24.2328 5.07957 24.2012 5 24.2012C4.92043 24.2012 4.84435 24.2328 4.78809 24.2891C4.73183 24.3453 4.7002 24.4214 4.7002 24.501C4.7002 24.5805 4.73183 24.6566 4.78809 24.7129C4.84435 24.7692 4.92043 24.8008 5 24.8008V25.001C4.90056 25.001 4.80419 24.9713 4.72266 24.917L4.64648 24.8545C4.55272 24.7607 4.5 24.6336 4.5 24.501C4.5 24.4015 4.52963 24.3052 4.58398 24.2236L4.64648 24.1475C4.74025 24.0537 4.86739 24.001 5 24.001C5.13261 24.001 5.25975 24.0537 5.35352 24.1475C5.44728 24.2412 5.5 24.3684 5.5 24.501C5.5 24.6336 5.44728 24.7607 5.35352 24.8545L5.27734 24.917C5.19581 24.9713 5.09944 25.001 5 25.001V24.8008C5.07957 24.8008 5.15565 24.7692 5.21191 24.7129C5.26817 24.6566 5.2998 24.5805 5.2998 24.501ZM15.2998 24.501C15.2998 24.4214 15.2682 24.3453 15.2119 24.2891C15.1557 24.2328 15.0796 24.2012 15 24.2012C14.9204 24.2012 14.8443 24.2328 14.7881 24.2891C14.7318 24.3453 14.7002 24.4214 14.7002 24.501C14.7002 24.5805 14.7318 24.6566 14.7881 24.7129C14.8443 24.7692 14.9204 24.8008 15 24.8008V25.001C14.9006 25.001 14.8042 24.9713 14.7227 24.917L14.6465 24.8545C14.5527 24.7607 14.5 24.6336 14.5 24.501C14.5 24.4015 14.5296 24.3052 14.584 24.2236L14.6465 24.1475C14.7403 24.0537 14.8674 24.001 15 24.001C15.1326 24.001 15.2597 24.0537 15.3535 24.1475C15.4473 24.2412 15.5 24.3684 15.5 24.501C15.5 24.6336 15.4473 24.7607 15.3535 24.8545L15.2773 24.917C15.1958 24.9713 15.0994 25.001 15 25.001V24.8008C15.0796 24.8008 15.1557 24.7692 15.2119 24.7129C15.2682 24.6566 15.2998 24.5805 15.2998 24.501ZM6.5 19.501C6.5 18.674 5.827 18.001 5 18.001C4.173 18.001 3.5 18.674 3.5 19.501C3.5 20.328 4.173 21.001 5 21.001C5.827 21.001 6.5 20.328 6.5 19.501ZM11.5 19.501C11.5 18.674 10.827 18.001 10 18.001C9.173 18.001 8.5 18.674 8.5 19.501C8.5 20.328 9.173 21.001 10 21.001C10.827 21.001 11.5 20.328 11.5 19.501ZM26.5 19.501C26.5 18.674 25.827 18.001 25 18.001C24.173 18.001 23.5 18.674 23.5 19.501C23.5 20.328 24.173 21.001 25 21.001C25.827 21.001 26.5 20.328 26.5 19.501ZM5.2998 19.501C5.2998 19.4214 5.26817 19.3453 5.21191 19.2891C5.15565 19.2328 5.07957 19.2012 5 19.2012C4.92043 19.2012 4.84435 19.2328 4.78809 19.2891C4.73183 19.3453 4.7002 19.4214 4.7002 19.501C4.7002 19.5805 4.73183 19.6566 4.78809 19.7129C4.84435 19.7692 4.92043 19.8008 5 19.8008V20.001C4.90056 20.001 4.80419 19.9713 4.72266 19.917L4.64648 19.8545C4.55272 19.7607 4.5 19.6336 4.5 19.501C4.5 19.4015 4.52963 19.3052 4.58398 19.2236L4.64648 19.1475C4.74025 19.0537 4.86739 19.001 5 19.001C5.13261 19.001 5.25975 19.0537 5.35352 19.1475C5.44728 19.2412 5.5 19.3684 5.5 19.501C5.5 19.6336 5.44728 19.7607 5.35352 19.8545L5.27734 19.917C5.19581 19.9713 5.09944 20.001 5 20.001V19.8008C5.07957 19.8008 5.15565 19.7692 5.21191 19.7129C5.26817 19.6566 5.2998 19.5805 5.2998 19.501ZM10.2998 19.501C10.2998 19.4214 10.2682 19.3453 10.2119 19.2891C10.1557 19.2328 10.0796 19.2012 10 19.2012C9.92043 19.2012 9.84435 19.2328 9.78809 19.2891C9.73183 19.3453 9.7002 19.4214 9.7002 19.501C9.7002 19.5805 9.73183 19.6566 9.78809 19.7129C9.84435 19.7692 9.92043 19.8008 10 19.8008V20.001C9.90056 20.001 9.80419 19.9713 9.72266 19.917L9.64648 19.8545C9.55272 19.7607 9.5 19.6336 9.5 19.501C9.5 19.4015 9.52963 19.3052 9.58398 19.2236L9.64648 19.1475C9.74025 19.0537 9.86739 19.001 10 19.001C10.1326 19.001 10.2597 19.0537 10.3535 19.1475C10.4473 19.2412 10.5 19.3684 10.5 19.501C10.5 19.6336 10.4473 19.7607 10.3535 19.8545L10.2773 19.917C10.1958 19.9713 10.0994 20.001 10 20.001V19.8008C10.0796 19.8008 10.1557 19.7692 10.2119 19.7129C10.2682 19.6566 10.2998 19.5805 10.2998 19.501ZM25.2998 19.501C25.2998 19.4214 25.2682 19.3453 25.2119 19.2891C25.1557 19.2328 25.0796 19.2012 25 19.2012C24.9204 19.2012 24.8443 19.2328 24.7881 19.2891C24.7318 19.3453 24.7002 19.4214 24.7002 19.501C24.7002 19.5805 24.7318 19.6566 24.7881 19.7129C24.8443 19.7692 24.9204 19.8008 25 19.8008V20.001C24.9006 20.001 24.8042 19.9713 24.7227 19.917L24.6465 19.8545C24.5527 19.7607 24.5 19.6336 24.5 19.501C24.5 19.4015 24.5296 19.3052 24.584 19.2236L24.6465 19.1475C24.7403 19.0537 24.8674 19.001 25 19.001C25.1326 19.001 25.2597 19.0537 25.3535 19.1475C25.4473 19.2412 25.5 19.3684 25.5 19.501C25.5 19.6336 25.4473 19.7607 25.3535 19.8545L25.2773 19.917C25.1958 19.9713 25.0994 20.001 25 20.001V19.8008C25.0796 19.8008 25.1557 19.7692 25.2119 19.7129C25.2682 19.6566 25.2998 19.5805 25.2998 19.501ZM11.5 14.501C11.5 13.674 10.827 13.001 10 13.001C9.173 13.001 8.5 13.674 8.5 14.501C8.5 15.328 9.173 16.001 10 16.001C10.827 16.001 11.5 15.328 11.5 14.501ZM16.5 14.501C16.5 13.674 15.827 13.001 15 13.001C14.173 13.001 13.5 13.674 13.5 14.501C13.5 15.328 14.173 16.001 15 16.001C15.827 16.001 16.5 15.328 16.5 14.501ZM26.5 14.501C26.5 13.674 25.827 13.001 25 13.001C24.173 13.001 23.5 13.674 23.5 14.501C23.5 15.328 24.173 16.001 25 16.001C25.827 16.001 26.5 15.328 26.5 14.501ZM10.2998 14.501C10.2998 14.4214 10.2682 14.3453 10.2119 14.2891C10.1557 14.2328 10.0796 14.2012 10 14.2012C9.92043 14.2012 9.84435 14.2328 9.78809 14.2891C9.73183 14.3453 9.7002 14.4214 9.7002 14.501C9.7002 14.5805 9.73183 14.6566 9.78809 14.7129C9.84435 14.7692 9.92043 14.8008 10 14.8008V15.001C9.90056 15.001 9.80419 14.9713 9.72266 14.917L9.64648 14.8545C9.55272 14.7607 9.5 14.6336 9.5 14.501C9.5 14.4015 9.52963 14.3052 9.58398 14.2236L9.64648 14.1475C9.74025 14.0537 9.86739 14.001 10 14.001C10.1326 14.001 10.2597 14.0537 10.3535 14.1475C10.4473 14.2412 10.5 14.3684 10.5 14.501C10.5 14.6336 10.4473 14.7607 10.3535 14.8545L10.2773 14.917C10.1958 14.9713 10.0994 15.001 10 15.001V14.8008C10.0796 14.8008 10.1557 14.7692 10.2119 14.7129C10.2682 14.6566 10.2998 14.5805 10.2998 14.501ZM15.2998 14.501C15.2998 14.4214 15.2682 14.3453 15.2119 14.2891C15.1557 14.2328 15.0796 14.2012 15 14.2012C14.9204 14.2012 14.8443 14.2328 14.7881 14.2891C14.7318 14.3453 14.7002 14.4214 14.7002 14.501C14.7002 14.5805 14.7318 14.6566 14.7881 14.7129C14.8443 14.7692 14.9204 14.8008 15 14.8008V15.001C14.9006 15.001 14.8042 14.9713 14.7227 14.917L14.6465 14.8545C14.5527 14.7607 14.5 14.6336 14.5 14.501C14.5 14.4015 14.5296 14.3052 14.584 14.2236L14.6465 14.1475C14.7403 14.0537 14.8674 14.001 15 14.001C15.1326 14.001 15.2597 14.0537 15.3535 14.1475C15.4473 14.2412 15.5 14.3684 15.5 14.501C15.5 14.6336 15.4473 14.7607 15.3535 14.8545L15.2773 14.917C15.1958 14.9713 15.0994 15.001 15 15.001V14.8008C15.0796 14.8008 15.1557 14.7692 15.2119 14.7129C15.2682 14.6566 15.2998 14.5805 15.2998 14.501ZM25.2998 14.501C25.2998 14.4214 25.2682 14.3453 25.2119 14.2891C25.1557 14.2328 25.0796 14.2012 25 14.2012C24.9204 14.2012 24.8443 14.2328 24.7881 14.2891C24.7318 14.3453 24.7002 14.4214 24.7002 14.501C24.7002 14.5805 24.7318 14.6566 24.7881 14.7129C24.8443 14.7692 24.9204 14.8008 25 14.8008V15.001C24.9006 15.001 24.8042 14.9713 24.7227 14.917L24.6465 14.8545C24.5527 14.7607 24.5 14.6336 24.5 14.501C24.5 14.4015 24.5296 14.3052 24.584 14.2236L24.6465 14.1475C24.7403 14.0537 24.8674 14.001 25 14.001C25.1326 14.001 25.2597 14.0537 25.3535 14.1475C25.4473 14.2412 25.5 14.3684 25.5 14.501C25.5 14.6336 25.4473 14.7607 25.3535 14.8545L25.2773 14.917C25.1958 14.9713 25.0994 15.001 25 15.001V14.8008C25.0796 14.8008 25.1557 14.7692 25.2119 14.7129C25.2682 14.6566 25.2998 14.5805 25.2998 14.501ZM6.7002 24.501C6.7002 25.4384 5.93746 26.2012 5 26.2012C4.06254 26.2012 3.2998 25.4384 3.2998 24.501C3.2998 23.5635 4.06254 22.8008 5 22.8008C5.93746 22.8008 6.7002 23.5635 6.7002 24.501ZM16.7002 24.501C16.7002 25.4384 15.9375 26.2012 15 26.2012C14.0625 26.2012 13.2998 25.4384 13.2998 24.501C13.2998 23.5635 14.0625 22.8008 15 22.8008C15.9375 22.8008 16.7002 23.5635 16.7002 24.501ZM6.7002 19.501C6.7002 20.4384 5.93746 21.2012 5 21.2012C4.06254 21.2012 3.2998 20.4384 3.2998 19.501C3.2998 18.5635 4.06254 17.8008 5 17.8008C5.93746 17.8008 6.7002 18.5635 6.7002 19.501ZM11.7002 19.501C11.7002 20.4384 10.9375 21.2012 10 21.2012C9.06254 21.2012 8.2998 20.4384 8.2998 19.501C8.2998 18.5635 9.06254 17.8008 10 17.8008C10.9375 17.8008 11.7002 18.5635 11.7002 19.501ZM26.7002 19.501C26.7002 20.4384 25.9375 21.2012 25 21.2012C24.0625 21.2012 23.2998 20.4384 23.2998 19.501C23.2998 18.5635 24.0625 17.8008 25 17.8008C25.9375 17.8008 26.7002 18.5635 26.7002 19.501ZM11.7002 14.501C11.7002 15.4384 10.9375 16.2012 10 16.2012C9.06254 16.2012 8.2998 15.4384 8.2998 14.501C8.2998 13.5635 9.06254 12.8008 10 12.8008C10.9375 12.8008 11.7002 13.5635 11.7002 14.501ZM16.7002 14.501C16.7002 15.4384 15.9375 16.2012 15 16.2012C14.0625 16.2012 13.2998 15.4384 13.2998 14.501C13.2998 13.5635 14.0625 12.8008 15 12.8008C15.9375 12.8008 16.7002 13.5635 16.7002 14.501ZM26.7002 14.501C26.7002 15.4384 25.9375 16.2012 25 16.2012C24.0625 16.2012 23.2998 15.4384 23.2998 14.501C23.2998 13.5635 24.0625 12.8008 25 12.8008C25.9375 12.8008 26.7002 13.5635 26.7002 14.501Z" fill="#C60311"/>
<path d="M27 4H24.5V2.5C24.5 1.673 23.827 1 23 1C22.173 1 21.5 1.673 21.5 2.5V4H8.5V2.5C8.5 1.673 7.827 1 7 1C6.173 1 5.5 1.673 5.5 2.5V4H3C2.3372 4.00079 1.70178 4.26444 1.23311 4.73311C0.764441 5.20178 0.500794 5.8372 0.5 6.5V26.5C0.5 27.878 1.622 29 3 29H27C28.378 29 29.5 27.878 29.5 26.5V6.5C29.5 5.122 28.378 4 27 4ZM22.5 2.5C22.5 2.36739 22.5527 2.24021 22.6464 2.14645C22.7402 2.05268 22.8674 2 23 2C23.1326 2 23.2598 2.05268 23.3536 2.14645C23.4473 2.24021 23.5 2.36739 23.5 2.5V6.5C23.5 6.63261 23.4473 6.75979 23.3536 6.85355C23.2598 6.94732 23.1326 7 23 7C22.8674 7 22.7402 6.94732 22.6464 6.85355C22.5527 6.75979 22.5 6.63261 22.5 6.5V2.5ZM6.5 2.5C6.5 2.36739 6.55268 2.24021 6.64645 2.14645C6.74021 2.05268 6.86739 2 7 2C7.13261 2 7.25979 2.05268 7.35355 2.14645C7.44732 2.24021 7.5 2.36739 7.5 2.5V6.5C7.5 6.63261 7.44732 6.75979 7.35355 6.85355C7.25979 6.94732 7.13261 7 7 7C6.86739 7 6.74021 6.94732 6.64645 6.85355C6.55268 6.75979 6.5 6.63261 6.5 6.5V2.5ZM1.5 6.5C1.5 5.673 2.173 5 3 5H5.5V6.5C5.5 7.327 6.173 8 7 8C7.827 8 8.5 7.327 8.5 6.5V5H21.5V6.5C21.5 7.327 22.173 8 23 8C23.827 8 24.5 7.327 24.5 6.5V5H27C27.827 5 28.5 5.673 28.5 6.5V10H1.5V6.5ZM28.5 26.5C28.5 27.327 27.827 28 27 28H3C2.173 28 1.5 27.327 1.5 26.5V11H28.5V26.5Z" fill="#C60311"/>
<path d="M27 27.5V28H3V27.5H27ZM28 26.5V11.5H2V26.5C2 27.0509 2.44914 27.5 3 27.5V28C2.173 28 1.5 27.327 1.5 26.5V11H28.5V26.5C28.5 27.327 27.827 28 27 28V27.5C27.5509 27.5 28 27.0509 28 26.5ZM21 6.5V5.5H9V6.5C9 7.60314 8.10314 8.5 7 8.5C5.89686 8.5 5 7.60314 5 6.5V5.5H3C2.44914 5.5 2 5.94914 2 6.5V9.5H28V6.5C28 5.94914 27.5509 5.5 27 5.5H25V6.5C25 7.60314 24.1031 8.5 23 8.5C21.8969 8.5 21 7.60314 21 6.5ZM7 7C6.90056 7 6.80419 6.97037 6.72266 6.91602L6.64648 6.85352C6.55272 6.75975 6.5 6.63261 6.5 6.5V2.5C6.5 2.40056 6.52963 2.30419 6.58398 2.22266L6.64648 2.14648C6.74025 2.05272 6.86739 2 7 2C7.13261 2 7.25975 2.05272 7.35352 2.14648C7.44728 2.24025 7.5 2.36739 7.5 2.5V6.5C7.5 6.63261 7.44728 6.75975 7.35352 6.85352C7.25975 6.94728 7.13261 7 7 7ZM23 7C22.9006 7 22.8042 6.97037 22.7227 6.91602L22.6465 6.85352C22.5527 6.75975 22.5 6.63261 22.5 6.5V2.5C22.5 2.40056 22.5296 2.30419 22.584 2.22266L22.6465 2.14648C22.7403 2.05272 22.8674 2 23 2C23.1326 2 23.2597 2.05272 23.3535 2.14648C23.4473 2.24025 23.5 2.36739 23.5 2.5V6.5C23.5 6.63261 23.4473 6.75975 23.3535 6.85352C23.2597 6.94728 23.1326 7 23 7ZM24.5 2.5C24.5 1.673 23.827 1 23 1C22.173 1 21.5 1.673 21.5 2.5V4H8.5V2.5C8.5 1.673 7.827 1 7 1C6.173 1 5.5 1.673 5.5 2.5V4H3C2.3372 4.00079 1.70207 4.26473 1.2334 4.7334L1.06738 4.91602C0.70274 5.36073 0.500695 5.91989 0.5 6.5V26.5C0.5 27.878 1.622 29 3 29H27C28.378 29 29.5 27.878 29.5 26.5V6.5C29.5 5.122 28.378 4 27 4V3.5C28.6541 3.5 30 4.84586 30 6.5V26.5C30 28.1541 28.6541 29.5 27 29.5H3C1.34586 29.5 0 28.1541 0 26.5V6.49902L0.0146484 6.20312C0.0835004 5.51676 0.387857 4.87191 0.879883 4.37988C1.44208 3.81768 2.20396 3.50105 2.99902 3.5H5V2.5C5 1.39686 5.89686 0.5 7 0.5C8.10314 0.5 9 1.39686 9 2.5V3.5H21V2.5C21 1.39686 21.8969 0.5 23 0.5C24.1031 0.5 25 1.39686 25 2.5V3.5H27V4H24.5V2.5ZM28.5 10H1.5V6.5C1.5 5.673 2.173 5 3 5H5.5V6.5C5.5 7.327 6.173 8 7 8C7.827 8 8.5 7.327 8.5 6.5V5H21.5V6.5C21.5 7.327 22.173 8 23 8C23.827 8 24.5 7.327 24.5 6.5V5H27C27.827 5 28.5 5.673 28.5 6.5V10Z" fill="#C60311"/>
<path d="M19.2932 15.4137C19.3395 15.4605 19.3946 15.4977 19.4554 15.523C19.5162 15.5484 19.5813 15.5614 19.6472 15.5614C19.713 15.5614 19.7782 15.5484 19.839 15.523C19.8997 15.4977 19.9549 15.4605 20.0012 15.4137L21.4142 13.9997C21.5053 13.9054 21.5557 13.7791 21.5545 13.648C21.5534 13.5169 21.5008 13.3915 21.4081 13.2988C21.3154 13.2061 21.19 13.1535 21.0589 13.1524C20.9278 13.1512 20.8015 13.2016 20.7072 13.2927L19.6462 14.3537L19.2932 13.9997C19.1989 13.9086 19.0726 13.8582 18.9415 13.8594C18.8104 13.8605 18.685 13.9131 18.5923 14.0058C18.4996 14.0985 18.447 14.2239 18.4458 14.355C18.4447 14.4861 18.4951 14.6124 18.5862 14.7067L19.2932 15.4137ZM19.2932 20.5607C19.3395 20.6075 19.3946 20.6447 19.4554 20.67C19.5162 20.6954 19.5813 20.7084 19.6472 20.7084C19.713 20.7084 19.7782 20.6954 19.839 20.67C19.8997 20.6447 19.9549 20.6075 20.0012 20.5607L21.4152 19.1467C21.5063 19.0524 21.5567 18.9261 21.5555 18.795C21.5544 18.6639 21.5018 18.5385 21.4091 18.4458C21.3164 18.3531 21.191 18.3005 21.0599 18.2994C20.9288 18.2982 20.8025 18.3486 20.7082 18.4397L19.6462 19.4997L19.2922 19.1457C19.1979 19.0546 19.0716 19.0042 18.9405 19.0054C18.8094 19.0065 18.684 19.0591 18.5913 19.1518C18.4986 19.2445 18.446 19.3699 18.4448 19.501C18.4437 19.6321 18.4941 19.7584 18.5852 19.8527L19.2932 20.5607ZM14.2932 20.5607C14.3395 20.6075 14.3946 20.6447 14.4554 20.67C14.5162 20.6954 14.5813 20.7084 14.6472 20.7084C14.713 20.7084 14.7782 20.6954 14.839 20.67C14.8997 20.6447 14.9549 20.6075 15.0012 20.5607L16.4152 19.1467C16.5063 19.0524 16.5567 18.9261 16.5555 18.795C16.5544 18.6639 16.5018 18.5385 16.4091 18.4458C16.3164 18.3531 16.191 18.3005 16.0599 18.2994C15.9288 18.2982 15.8025 18.3486 15.7082 18.4397L14.6462 19.4997L14.2922 19.1457C14.1979 19.0546 14.0716 19.0042 13.9405 19.0054C13.8094 19.0065 13.684 19.0591 13.5913 19.1518C13.4986 19.2445 13.446 19.3699 13.4448 19.501C13.4437 19.6321 13.4941 19.7584 13.5852 19.8527L14.2932 20.5607ZM9.29318 25.5607C9.33949 25.6075 9.39462 25.6447 9.45539 25.67C9.51615 25.6954 9.58134 25.7084 9.64718 25.7084C9.71302 25.7084 9.77821 25.6954 9.83898 25.67C9.89974 25.6447 9.95487 25.6075 10.0012 25.5607L11.4152 24.1467C11.5063 24.0524 11.5567 23.9261 11.5555 23.795C11.5544 23.6639 11.5018 23.5385 11.4091 23.4458C11.3164 23.3531 11.191 23.3005 11.0599 23.2994C10.9288 23.2982 10.8025 23.3486 10.7082 23.4397L9.64618 24.4997L9.29218 24.1457C9.19788 24.0546 9.07158 24.0042 8.94048 24.0054C8.80938 24.0065 8.68398 24.0591 8.59127 24.1518C8.49857 24.2445 8.44598 24.3699 8.44484 24.501C8.4437 24.6321 8.4941 24.7584 8.58518 24.8527L9.29318 25.5607Z" fill="#C60311"/>
<path d="M11.062 23.0987C11.2454 23.1004 11.4206 23.174 11.5503 23.3037C11.68 23.4334 11.7537 23.6086 11.7554 23.792C11.757 23.9754 11.6865 24.1522 11.5591 24.2842L10.1431 25.7012L10.1421 25.7002C10.0773 25.7656 10.0005 25.8181 9.91555 25.8535C9.87323 25.8712 9.82943 25.8846 9.78469 25.8936L9.647 25.9073C9.55479 25.9072 9.46354 25.8891 9.37844 25.8535C9.29363 25.8181 9.21662 25.7664 9.15188 25.7012L8.44094 24.9903C8.31369 24.8583 8.24306 24.6814 8.24466 24.4981C8.24631 24.3147 8.32016 24.1395 8.44973 24.0098C8.57952 23.88 8.75545 23.8063 8.93899 23.8047C9.07666 23.8036 9.21071 23.8424 9.32473 23.916L9.43118 24.001L9.43411 24.003L9.64602 24.2158L10.5669 23.2969L10.5689 23.2949L10.6763 23.21C10.7903 23.1365 10.9245 23.0975 11.062 23.0987ZM11.0601 23.2989C10.9291 23.2977 10.8028 23.3476 10.7085 23.4385L9.64602 24.499L9.29251 24.1446C9.22179 24.0763 9.13285 24.0307 9.03762 24.0127L8.94094 24.0039C8.80995 24.0051 8.68402 24.0579 8.59133 24.1504L8.52981 24.2256C8.47566 24.3062 8.44571 24.4015 8.44485 24.5L8.45364 24.5967C8.47156 24.6921 8.51709 24.7808 8.58548 24.8516L9.29348 25.5596C9.33978 25.6064 9.39486 25.6436 9.45559 25.669C9.48595 25.6816 9.51725 25.6918 9.54934 25.6983L9.647 25.7071C9.67977 25.7071 9.71267 25.7046 9.74466 25.6983L9.83938 25.669C9.9 25.6436 9.95527 25.6063 10.0015 25.5596L11.4156 24.1455C11.4838 24.0747 11.5295 23.986 11.5474 23.8907L11.5552 23.794C11.5543 23.6959 11.525 23.6009 11.4712 23.5205L11.4087 23.4444C11.3393 23.3751 11.2515 23.3282 11.1568 23.3086L11.0601 23.2989ZM16.062 18.0987C16.2454 18.1004 16.4206 18.174 16.5503 18.3037C16.68 18.4334 16.7537 18.6086 16.7554 18.792C16.757 18.9754 16.6865 19.1522 16.5591 19.2842L15.1431 20.7012L15.1421 20.7002C15.0773 20.7656 15.0005 20.8181 14.9156 20.8535C14.8732 20.8712 14.8294 20.8846 14.7847 20.8936L14.647 20.9073C14.5548 20.9072 14.4635 20.8891 14.3784 20.8535C14.2936 20.8181 14.2166 20.7664 14.1519 20.7012L13.4409 19.9903C13.3137 19.8583 13.2431 19.6814 13.2447 19.4981C13.2463 19.3147 13.3202 19.1395 13.4497 19.0098C13.5795 18.88 13.7555 18.8063 13.939 18.8047C14.0767 18.8036 14.2107 18.8424 14.3247 18.916L14.4312 19.001L14.4341 19.003L14.646 19.2158L15.5669 18.2969L15.5689 18.2949L15.6763 18.21C15.7903 18.1365 15.9245 18.0975 16.062 18.0987ZM21.062 18.0987C21.2454 18.1004 21.4206 18.174 21.5503 18.3037C21.68 18.4334 21.7537 18.6086 21.7554 18.792C21.757 18.9754 21.6865 19.1522 21.5591 19.2842L20.1431 20.7012L20.1421 20.7002C20.0773 20.7656 20.0005 20.8181 19.9156 20.8535C19.8732 20.8712 19.8294 20.8846 19.7847 20.8936L19.647 20.9073C19.5548 20.9072 19.4635 20.8891 19.3784 20.8535C19.2936 20.8181 19.2166 20.7664 19.1519 20.7012L18.4409 19.9903C18.3137 19.8583 18.2431 19.6814 18.2447 19.4981C18.2463 19.3147 18.3202 19.1395 18.4497 19.0098C18.5795 18.88 18.7555 18.8063 18.939 18.8047C19.0767 18.8036 19.2107 18.8424 19.3247 18.916L19.4312 19.001L19.4341 19.003L19.646 19.2158L20.5669 18.2969L20.5689 18.2949L20.6763 18.21C20.7903 18.1365 20.9245 18.0975 21.062 18.0987ZM16.0601 18.2989C15.9291 18.2977 15.8028 18.3476 15.7085 18.4385L14.646 19.499L14.2925 19.1446C14.2218 19.0763 14.1329 19.0307 14.0376 19.0127L13.9409 19.0039C13.81 19.0051 13.684 19.0579 13.5913 19.1504L13.5298 19.2256C13.4757 19.3062 13.4457 19.4015 13.4449 19.5L13.4536 19.5967C13.4716 19.6921 13.5171 19.7808 13.5855 19.8516L14.2935 20.5596C14.3398 20.6064 14.3949 20.6436 14.4556 20.669C14.4859 20.6816 14.5173 20.6918 14.5493 20.6983L14.647 20.7071C14.6798 20.7071 14.7127 20.7046 14.7447 20.6983L14.8394 20.669C14.9 20.6436 14.9553 20.6063 15.0015 20.5596L16.4156 19.1455C16.4838 19.0747 16.5295 18.986 16.5474 18.8907L16.5552 18.794C16.5543 18.6959 16.525 18.6009 16.4712 18.5205L16.4087 18.4444C16.3393 18.3751 16.2515 18.3282 16.1568 18.3086L16.0601 18.2989ZM21.0601 18.2989C20.9291 18.2977 20.8028 18.3476 20.7085 18.4385L19.646 19.499L19.2925 19.1446C19.2218 19.0763 19.1329 19.0307 19.0376 19.0127L18.9409 19.0039C18.81 19.0051 18.684 19.0579 18.5913 19.1504L18.5298 19.2256C18.4757 19.3062 18.4457 19.4015 18.4449 19.5L18.4536 19.5967C18.4716 19.6921 18.5171 19.7808 18.5855 19.8516L19.2935 20.5596C19.3398 20.6064 19.3949 20.6436 19.4556 20.669C19.4859 20.6816 19.5173 20.6918 19.5493 20.6983L19.647 20.7071C19.6798 20.7071 19.7127 20.7046 19.7447 20.6983L19.8394 20.669C19.9 20.6436 19.9553 20.6063 20.0015 20.5596L21.4156 19.1455C21.4838 19.0747 21.5295 18.986 21.5474 18.8907L21.5552 18.794C21.5543 18.6959 21.525 18.6009 21.4712 18.5205L21.4087 18.4444C21.3393 18.3751 21.2515 18.3282 21.1568 18.3086L21.0601 18.2989ZM21.0611 12.9512C21.2444 12.9529 21.4197 13.0267 21.5493 13.1563C21.6791 13.2861 21.7528 13.462 21.7544 13.6455C21.756 13.829 21.6856 14.0058 21.5581 14.1377L21.5562 14.1397L21.4146 13.999C21.4828 13.9284 21.5275 13.8393 21.5454 13.7442L21.5542 13.6475C21.5534 13.5492 21.5241 13.4536 21.4702 13.3731L21.4077 13.2979C21.3383 13.2285 21.2506 13.1818 21.1558 13.1621L21.0591 13.1514C20.928 13.1503 20.8018 13.201 20.7075 13.292L19.646 14.3526L19.2935 13.999C19.2228 13.9308 19.1338 13.8852 19.0386 13.8672L18.9419 13.8584C18.8108 13.8596 18.685 13.9122 18.5923 14.0049L18.5308 14.0801C18.4768 14.1607 18.4467 14.2561 18.4458 14.3545L18.4546 14.4512C18.4726 14.5464 18.5182 14.6354 18.5865 14.7061L19.2935 15.4131C19.3397 15.4598 19.395 15.4972 19.4556 15.5225C19.4859 15.5351 19.5173 15.5444 19.5493 15.5508L19.647 15.5606C19.6798 15.5606 19.7126 15.5572 19.7447 15.5508L19.8394 15.5225C19.8696 15.5099 19.8983 15.4938 19.9253 15.4756L20.0015 15.4131L21.4146 13.999L21.5562 14.1397L20.1431 15.5537C20.0782 15.6192 20.0006 15.6716 19.9156 15.7071C19.8733 15.7247 19.8294 15.7381 19.7847 15.7471L19.647 15.7608C19.5549 15.7607 19.4635 15.7425 19.3784 15.7071C19.2933 15.6715 19.2158 15.6193 19.1509 15.5537L18.4449 14.8467L18.4419 14.8448C18.3146 14.7128 18.2441 14.5359 18.2456 14.3526C18.2472 14.169 18.3209 13.9931 18.4507 13.8633C18.5805 13.7335 18.7564 13.6598 18.94 13.6582C19.0777 13.6571 19.2116 13.6968 19.3257 13.7705L19.4322 13.8545L19.4351 13.8574L19.645 14.0694L20.5659 13.1504L20.5679 13.1475L20.6753 13.0635C20.7893 12.9899 20.9234 12.95 21.0611 12.9512Z" fill="#C60311"/>
</svg>
