<svg width="65" height="31" viewBox="0 0 65 31" fill="none" xmlns="http://www.w3.org/2000/svg">
<path d="M11.2046 17.7773C14.6229 17.7773 17.4048 20.5595 17.4048 23.9873C17.4048 27.4054 14.6227 30.1875 11.2046 30.1875C7.77681 30.1875 4.99463 27.4056 4.99463 23.9873C4.99465 20.5593 7.77655 17.7774 11.2046 17.7773ZM11.2046 19.2676C8.60269 19.2676 6.48488 21.3854 6.48486 23.9873C6.48486 26.5886 8.60202 28.6972 11.2046 28.6973C13.8065 28.6973 15.9146 26.5892 15.9146 23.9873C15.9145 21.3847 13.8059 19.2676 11.2046 19.2676Z" fill="#C60311" stroke="#C60311" stroke-width="0.5"/>
<path d="M11.2046 21.3164C12.674 21.3164 13.8647 22.5196 13.8647 23.9863L13.8511 24.2578C13.7149 25.5986 12.581 26.6465 11.2046 26.6465C9.72723 26.6464 8.53467 25.455 8.53467 23.9863C8.53471 22.519 9.72591 21.3164 11.2046 21.3164ZM11.2046 22.8066C10.5527 22.8067 10.0249 23.3345 10.0249 23.9863C10.0249 24.6271 10.5516 25.1562 11.2046 25.1562C11.8465 25.1562 12.3745 24.6283 12.3745 23.9863C12.3745 23.3333 11.8454 22.8066 11.2046 22.8066Z" fill="#C60311" stroke="#C60311" stroke-width="0.5"/>
<path d="M48.9136 21.6787C49.4489 21.3684 50.066 21.253 50.6743 21.3496C51.3716 21.4604 51.9892 21.8476 52.4067 22.4189C52.8248 22.991 53.0035 23.6994 52.8813 24.3994L52.8804 24.3984C52.7696 25.102 52.3948 25.7199 51.8218 26.1387L51.8198 26.1396C51.3591 26.4688 50.8189 26.6464 50.2651 26.6465C50.1223 26.6465 49.9789 26.6352 49.8364 26.6133H49.8354C48.3897 26.3815 47.3958 25.014 47.6274 23.5674C47.7377 22.8628 48.1134 22.2445 48.687 21.8252L48.689 21.8232L48.9136 21.6787ZM50.4448 22.8125C50.1242 22.7637 49.8194 22.8456 49.5591 23.0303C49.3073 23.209 49.1413 23.4886 49.0913 23.7969C48.9941 24.4372 49.4269 25.0369 50.0669 25.1484H50.0679C50.3761 25.1901 50.6923 25.1152 50.9497 24.9326C51.2014 24.754 51.3674 24.4751 51.4175 24.167C51.4672 23.8515 51.3927 23.54 51.2144 23.2959L51.1372 23.2021C50.9506 22.9933 50.7082 22.8562 50.4448 22.8135V22.8125Z" fill="#C60311" stroke="#C60311" stroke-width="0.5"/>
<mask id="path-4-outside-1_250_539" maskUnits="userSpaceOnUse" x="0" y="-0.210938" width="65" height="31" fill="black">
<rect fill="white" y="-0.210938" width="65" height="31"/>
<path d="M63.4348 19.4066C59.3948 14.3166 49.5548 12.2466 48.1248 11.9666C45.5148 9.22656 39.5448 3.10656 28.1748 0.796562C28.1648 0.786563 28.1448 0.796562 28.1348 0.796562C28.0948 0.786563 28.0648 0.786563 28.0348 0.796562C28.0048 0.796562 27.9748 0.796563 27.9448 0.806563C27.9148 0.816563 27.8848 0.826562 27.8548 0.846562C27.8248 0.856562 27.8048 0.876563 27.7848 0.886563C27.7548 0.906563 27.7348 0.936562 27.7148 0.956562C27.6948 0.986562 27.6748 1.00656 27.6548 1.03656C27.6448 1.04656 27.6348 1.05656 27.6348 1.06656C27.5648 1.21656 27.5048 1.35656 27.4548 1.48656C27.2948 1.91656 27.2148 2.13656 26.7048 2.36656C26.5848 2.42656 26.4948 2.52656 26.4448 2.64656C26.4048 2.77656 26.4048 2.90656 26.4648 3.02656L28.2248 6.74656L26.1448 10.6466C24.2548 10.2666 20.1948 9.30656 19.0648 8.34656L17.2248 4.62656C17.1448 4.47656 17.0048 4.37656 16.8448 4.35656C16.6848 4.33656 16.5248 4.38656 16.4148 4.51656C15.6448 5.36656 14.0848 6.66656 13.1748 6.52656C12.8948 6.48656 12.3948 6.33656 11.8148 6.16656C9.97477 5.60656 6.89477 4.66656 4.17477 5.26656C4.12477 5.28656 4.07477 5.30656 4.02477 5.32656C3.80477 5.46656 3.63477 5.57656 3.51477 5.66656C3.15477 5.89656 2.92477 6.25656 2.85477 6.68656C2.84477 6.76656 2.85477 6.83656 2.87477 6.90656C3.32477 8.31656 3.19477 9.45656 2.48477 10.3966L1.85477 10.2966C1.72477 10.2666 1.59477 10.3066 1.48477 10.3766C1.38477 10.4566 1.30477 10.5766 1.28477 10.7066L1.05477 12.2066C0.674766 14.6166 2.31477 16.8766 4.65477 17.2466L6.02477 17.6366C6.21477 17.6866 6.40477 17.6366 6.53477 17.4866L7.32477 16.5766C7.63477 16.5966 8.26477 16.6466 9.21477 16.7666C10.7548 16.9666 12.6148 14.1766 13.2248 13.1866C14.1448 13.2466 15.7448 14.6566 16.7648 15.8266C16.6048 16.3666 16.3748 17.5566 16.9548 18.9566C17.0148 19.1166 17.1548 19.2266 17.3248 19.2566L44.3248 23.5166C44.0848 26.5766 46.2348 29.3766 49.3248 29.8666C49.6348 29.9166 49.9548 29.9366 50.2548 29.9366C52.9848 29.9366 55.3748 28.0466 56.0248 25.3666C56.6248 25.4466 57.1948 25.4866 57.7248 25.4866C59.3948 25.4866 60.7248 25.1166 61.6948 24.3566C62.4048 23.7966 62.8548 23.0866 63.1348 22.3666C63.1448 22.3666 63.1448 22.3666 63.1448 22.3666C63.1448 22.3566 63.1448 22.3466 63.1548 22.3466C63.4548 21.5566 63.5848 20.7466 63.6448 20.0966C63.6648 19.8266 63.5848 19.5766 63.4348 19.4066ZM29.2148 6.99656C29.2848 6.85656 29.2948 6.68656 29.2248 6.54656L28.3348 4.68656C35.6048 6.37656 40.3948 9.83656 42.9748 12.2366C38.1848 12.2566 31.9248 11.5166 27.1748 10.8066L29.2148 6.99656ZM55.1648 24.7566C54.7348 27.4666 52.1848 29.3166 49.4748 28.8866C46.7748 28.4566 44.9148 25.9066 45.3448 23.2066C45.5548 21.8966 46.2648 20.7366 47.3348 19.9566C48.1948 19.3366 49.2048 19.0066 50.2448 19.0066C50.5048 19.0066 50.7748 19.0366 51.0348 19.0766C52.3448 19.2766 53.4948 19.9866 54.2748 21.0566C55.0548 22.1366 55.3748 23.4466 55.1648 24.7566ZM61.0848 23.5766C60.0348 24.4066 58.3848 24.6766 56.1948 24.3966C56.2948 23.0066 55.9048 21.6266 55.0748 20.4866C54.1348 19.1966 52.7548 18.3466 51.1848 18.0966C49.6248 17.8566 48.0448 18.2266 46.7548 19.1666C45.6148 19.9966 44.8448 21.1966 44.5048 22.5466L17.7648 18.3266C17.3148 16.9866 17.7548 15.9666 17.7748 15.9266C17.8448 15.7566 17.8248 15.5566 17.7048 15.4066C17.2048 14.8166 14.6648 11.8766 12.8348 12.2266C12.6948 12.2566 12.5748 12.3466 12.5048 12.4666C11.6848 13.8666 10.1248 15.8966 9.34477 15.7966C7.88477 15.5966 7.14477 15.5866 7.11477 15.5866C6.97477 15.5666 6.82477 15.6466 6.73477 15.7566L5.99477 16.6066L4.87477 16.2866C2.99477 15.9966 1.71477 14.2266 2.01477 12.3566L2.17477 11.3466L2.60477 11.4066C2.76477 11.4366 2.93477 11.3766 3.04477 11.2466C4.10477 10.0466 4.37477 8.52656 3.84477 6.74656C3.87477 6.65656 3.93477 6.55656 4.05477 6.47656C4.16477 6.39656 4.29477 6.31656 4.45477 6.21656C6.89477 5.69656 9.67477 6.54656 11.5148 7.10656C12.1648 7.29656 12.6648 7.45656 13.0248 7.50656C14.3248 7.69656 15.8448 6.43656 16.6348 5.68656L18.2148 8.86656C18.2248 8.88656 18.2448 8.90656 18.2548 8.92656C18.2648 8.94656 18.2748 8.96656 18.2848 8.97656L21.3648 12.4266L21.4348 14.2666C21.4348 14.4066 21.4948 14.5266 21.5948 14.6166L24.0448 16.7566C24.1348 16.8366 24.2548 16.8766 24.3648 16.8766C24.5048 16.8766 24.6348 16.8166 24.7348 16.7066C24.9148 16.4966 24.8948 16.1866 24.6848 16.0166L22.4048 14.0166L22.3348 12.2166C22.3348 12.0966 22.2948 11.9866 22.2148 11.9066L20.7348 10.2466C22.9848 11.0366 25.8548 11.5966 26.3048 11.6766C26.3148 11.6766 26.3148 11.6866 26.3148 11.6866C31.0848 12.4066 37.6048 13.2166 42.6948 13.2166C43.2048 13.2166 43.6948 13.2066 44.1748 13.1966C44.3648 13.1866 44.5348 13.0666 44.6148 12.8866C44.6848 12.7066 44.6448 12.4966 44.5048 12.3566C42.0548 9.86656 36.6248 5.41656 27.7948 3.55656L27.5348 3.01656C28.0548 2.66656 28.2148 2.25656 28.3648 1.84656C39.3248 4.19656 45.0548 10.1866 47.5148 12.7666C47.5848 12.8366 47.6748 12.8866 47.7748 12.9066C47.8648 12.9266 55.0148 14.2566 59.8348 17.5066L59.4848 18.8866C59.1948 19.9866 59.7148 21.1666 60.7248 21.6866L62.0548 22.3666C61.8448 22.8166 61.5248 23.2366 61.0848 23.5766ZM62.4148 21.4366L61.1848 20.8166C60.5848 20.4966 60.2748 19.7966 60.4448 19.1266L60.7048 18.1166C61.4448 18.6966 62.1148 19.3166 62.6548 19.9966C62.6148 20.4566 62.5548 20.9466 62.4148 21.4366Z"/>
</mask>
<path d="M63.4348 19.4066C59.3948 14.3166 49.5548 12.2466 48.1248 11.9666C45.5148 9.22656 39.5448 3.10656 28.1748 0.796562C28.1648 0.786563 28.1448 0.796562 28.1348 0.796562C28.0948 0.786563 28.0648 0.786563 28.0348 0.796562C28.0048 0.796562 27.9748 0.796563 27.9448 0.806563C27.9148 0.816563 27.8848 0.826562 27.8548 0.846562C27.8248 0.856562 27.8048 0.876563 27.7848 0.886563C27.7548 0.906563 27.7348 0.936562 27.7148 0.956562C27.6948 0.986562 27.6748 1.00656 27.6548 1.03656C27.6448 1.04656 27.6348 1.05656 27.6348 1.06656C27.5648 1.21656 27.5048 1.35656 27.4548 1.48656C27.2948 1.91656 27.2148 2.13656 26.7048 2.36656C26.5848 2.42656 26.4948 2.52656 26.4448 2.64656C26.4048 2.77656 26.4048 2.90656 26.4648 3.02656L28.2248 6.74656L26.1448 10.6466C24.2548 10.2666 20.1948 9.30656 19.0648 8.34656L17.2248 4.62656C17.1448 4.47656 17.0048 4.37656 16.8448 4.35656C16.6848 4.33656 16.5248 4.38656 16.4148 4.51656C15.6448 5.36656 14.0848 6.66656 13.1748 6.52656C12.8948 6.48656 12.3948 6.33656 11.8148 6.16656C9.97477 5.60656 6.89477 4.66656 4.17477 5.26656C4.12477 5.28656 4.07477 5.30656 4.02477 5.32656C3.80477 5.46656 3.63477 5.57656 3.51477 5.66656C3.15477 5.89656 2.92477 6.25656 2.85477 6.68656C2.84477 6.76656 2.85477 6.83656 2.87477 6.90656C3.32477 8.31656 3.19477 9.45656 2.48477 10.3966L1.85477 10.2966C1.72477 10.2666 1.59477 10.3066 1.48477 10.3766C1.38477 10.4566 1.30477 10.5766 1.28477 10.7066L1.05477 12.2066C0.674766 14.6166 2.31477 16.8766 4.65477 17.2466L6.02477 17.6366C6.21477 17.6866 6.40477 17.6366 6.53477 17.4866L7.32477 16.5766C7.63477 16.5966 8.26477 16.6466 9.21477 16.7666C10.7548 16.9666 12.6148 14.1766 13.2248 13.1866C14.1448 13.2466 15.7448 14.6566 16.7648 15.8266C16.6048 16.3666 16.3748 17.5566 16.9548 18.9566C17.0148 19.1166 17.1548 19.2266 17.3248 19.2566L44.3248 23.5166C44.0848 26.5766 46.2348 29.3766 49.3248 29.8666C49.6348 29.9166 49.9548 29.9366 50.2548 29.9366C52.9848 29.9366 55.3748 28.0466 56.0248 25.3666C56.6248 25.4466 57.1948 25.4866 57.7248 25.4866C59.3948 25.4866 60.7248 25.1166 61.6948 24.3566C62.4048 23.7966 62.8548 23.0866 63.1348 22.3666C63.1448 22.3666 63.1448 22.3666 63.1448 22.3666C63.1448 22.3566 63.1448 22.3466 63.1548 22.3466C63.4548 21.5566 63.5848 20.7466 63.6448 20.0966C63.6648 19.8266 63.5848 19.5766 63.4348 19.4066ZM29.2148 6.99656C29.2848 6.85656 29.2948 6.68656 29.2248 6.54656L28.3348 4.68656C35.6048 6.37656 40.3948 9.83656 42.9748 12.2366C38.1848 12.2566 31.9248 11.5166 27.1748 10.8066L29.2148 6.99656ZM55.1648 24.7566C54.7348 27.4666 52.1848 29.3166 49.4748 28.8866C46.7748 28.4566 44.9148 25.9066 45.3448 23.2066C45.5548 21.8966 46.2648 20.7366 47.3348 19.9566C48.1948 19.3366 49.2048 19.0066 50.2448 19.0066C50.5048 19.0066 50.7748 19.0366 51.0348 19.0766C52.3448 19.2766 53.4948 19.9866 54.2748 21.0566C55.0548 22.1366 55.3748 23.4466 55.1648 24.7566ZM61.0848 23.5766C60.0348 24.4066 58.3848 24.6766 56.1948 24.3966C56.2948 23.0066 55.9048 21.6266 55.0748 20.4866C54.1348 19.1966 52.7548 18.3466 51.1848 18.0966C49.6248 17.8566 48.0448 18.2266 46.7548 19.1666C45.6148 19.9966 44.8448 21.1966 44.5048 22.5466L17.7648 18.3266C17.3148 16.9866 17.7548 15.9666 17.7748 15.9266C17.8448 15.7566 17.8248 15.5566 17.7048 15.4066C17.2048 14.8166 14.6648 11.8766 12.8348 12.2266C12.6948 12.2566 12.5748 12.3466 12.5048 12.4666C11.6848 13.8666 10.1248 15.8966 9.34477 15.7966C7.88477 15.5966 7.14477 15.5866 7.11477 15.5866C6.97477 15.5666 6.82477 15.6466 6.73477 15.7566L5.99477 16.6066L4.87477 16.2866C2.99477 15.9966 1.71477 14.2266 2.01477 12.3566L2.17477 11.3466L2.60477 11.4066C2.76477 11.4366 2.93477 11.3766 3.04477 11.2466C4.10477 10.0466 4.37477 8.52656 3.84477 6.74656C3.87477 6.65656 3.93477 6.55656 4.05477 6.47656C4.16477 6.39656 4.29477 6.31656 4.45477 6.21656C6.89477 5.69656 9.67477 6.54656 11.5148 7.10656C12.1648 7.29656 12.6648 7.45656 13.0248 7.50656C14.3248 7.69656 15.8448 6.43656 16.6348 5.68656L18.2148 8.86656C18.2248 8.88656 18.2448 8.90656 18.2548 8.92656C18.2648 8.94656 18.2748 8.96656 18.2848 8.97656L21.3648 12.4266L21.4348 14.2666C21.4348 14.4066 21.4948 14.5266 21.5948 14.6166L24.0448 16.7566C24.1348 16.8366 24.2548 16.8766 24.3648 16.8766C24.5048 16.8766 24.6348 16.8166 24.7348 16.7066C24.9148 16.4966 24.8948 16.1866 24.6848 16.0166L22.4048 14.0166L22.3348 12.2166C22.3348 12.0966 22.2948 11.9866 22.2148 11.9066L20.7348 10.2466C22.9848 11.0366 25.8548 11.5966 26.3048 11.6766C26.3148 11.6766 26.3148 11.6866 26.3148 11.6866C31.0848 12.4066 37.6048 13.2166 42.6948 13.2166C43.2048 13.2166 43.6948 13.2066 44.1748 13.1966C44.3648 13.1866 44.5348 13.0666 44.6148 12.8866C44.6848 12.7066 44.6448 12.4966 44.5048 12.3566C42.0548 9.86656 36.6248 5.41656 27.7948 3.55656L27.5348 3.01656C28.0548 2.66656 28.2148 2.25656 28.3648 1.84656C39.3248 4.19656 45.0548 10.1866 47.5148 12.7666C47.5848 12.8366 47.6748 12.8866 47.7748 12.9066C47.8648 12.9266 55.0148 14.2566 59.8348 17.5066L59.4848 18.8866C59.1948 19.9866 59.7148 21.1666 60.7248 21.6866L62.0548 22.3666C61.8448 22.8166 61.5248 23.2366 61.0848 23.5766ZM62.4148 21.4366L61.1848 20.8166C60.5848 20.4966 60.2748 19.7966 60.4448 19.1266L60.7048 18.1166C61.4448 18.6966 62.1148 19.3166 62.6548 19.9966C62.6148 20.4566 62.5548 20.9466 62.4148 21.4366Z" fill="#C60311"/>
<path d="M63.4348 19.4066C59.3948 14.3166 49.5548 12.2466 48.1248 11.9666C45.5148 9.22656 39.5448 3.10656 28.1748 0.796562C28.1648 0.786563 28.1448 0.796562 28.1348 0.796562C28.0948 0.786563 28.0648 0.786563 28.0348 0.796562C28.0048 0.796562 27.9748 0.796563 27.9448 0.806563C27.9148 0.816563 27.8848 0.826562 27.8548 0.846562C27.8248 0.856562 27.8048 0.876563 27.7848 0.886563C27.7548 0.906563 27.7348 0.936562 27.7148 0.956562C27.6948 0.986562 27.6748 1.00656 27.6548 1.03656C27.6448 1.04656 27.6348 1.05656 27.6348 1.06656C27.5648 1.21656 27.5048 1.35656 27.4548 1.48656C27.2948 1.91656 27.2148 2.13656 26.7048 2.36656C26.5848 2.42656 26.4948 2.52656 26.4448 2.64656C26.4048 2.77656 26.4048 2.90656 26.4648 3.02656L28.2248 6.74656L26.1448 10.6466C24.2548 10.2666 20.1948 9.30656 19.0648 8.34656L17.2248 4.62656C17.1448 4.47656 17.0048 4.37656 16.8448 4.35656C16.6848 4.33656 16.5248 4.38656 16.4148 4.51656C15.6448 5.36656 14.0848 6.66656 13.1748 6.52656C12.8948 6.48656 12.3948 6.33656 11.8148 6.16656C9.97477 5.60656 6.89477 4.66656 4.17477 5.26656C4.12477 5.28656 4.07477 5.30656 4.02477 5.32656C3.80477 5.46656 3.63477 5.57656 3.51477 5.66656C3.15477 5.89656 2.92477 6.25656 2.85477 6.68656C2.84477 6.76656 2.85477 6.83656 2.87477 6.90656C3.32477 8.31656 3.19477 9.45656 2.48477 10.3966L1.85477 10.2966C1.72477 10.2666 1.59477 10.3066 1.48477 10.3766C1.38477 10.4566 1.30477 10.5766 1.28477 10.7066L1.05477 12.2066C0.674766 14.6166 2.31477 16.8766 4.65477 17.2466L6.02477 17.6366C6.21477 17.6866 6.40477 17.6366 6.53477 17.4866L7.32477 16.5766C7.63477 16.5966 8.26477 16.6466 9.21477 16.7666C10.7548 16.9666 12.6148 14.1766 13.2248 13.1866C14.1448 13.2466 15.7448 14.6566 16.7648 15.8266C16.6048 16.3666 16.3748 17.5566 16.9548 18.9566C17.0148 19.1166 17.1548 19.2266 17.3248 19.2566L44.3248 23.5166C44.0848 26.5766 46.2348 29.3766 49.3248 29.8666C49.6348 29.9166 49.9548 29.9366 50.2548 29.9366C52.9848 29.9366 55.3748 28.0466 56.0248 25.3666C56.6248 25.4466 57.1948 25.4866 57.7248 25.4866C59.3948 25.4866 60.7248 25.1166 61.6948 24.3566C62.4048 23.7966 62.8548 23.0866 63.1348 22.3666C63.1448 22.3666 63.1448 22.3666 63.1448 22.3666C63.1448 22.3566 63.1448 22.3466 63.1548 22.3466C63.4548 21.5566 63.5848 20.7466 63.6448 20.0966C63.6648 19.8266 63.5848 19.5766 63.4348 19.4066ZM29.2148 6.99656C29.2848 6.85656 29.2948 6.68656 29.2248 6.54656L28.3348 4.68656C35.6048 6.37656 40.3948 9.83656 42.9748 12.2366C38.1848 12.2566 31.9248 11.5166 27.1748 10.8066L29.2148 6.99656ZM55.1648 24.7566C54.7348 27.4666 52.1848 29.3166 49.4748 28.8866C46.7748 28.4566 44.9148 25.9066 45.3448 23.2066C45.5548 21.8966 46.2648 20.7366 47.3348 19.9566C48.1948 19.3366 49.2048 19.0066 50.2448 19.0066C50.5048 19.0066 50.7748 19.0366 51.0348 19.0766C52.3448 19.2766 53.4948 19.9866 54.2748 21.0566C55.0548 22.1366 55.3748 23.4466 55.1648 24.7566ZM61.0848 23.5766C60.0348 24.4066 58.3848 24.6766 56.1948 24.3966C56.2948 23.0066 55.9048 21.6266 55.0748 20.4866C54.1348 19.1966 52.7548 18.3466 51.1848 18.0966C49.6248 17.8566 48.0448 18.2266 46.7548 19.1666C45.6148 19.9966 44.8448 21.1966 44.5048 22.5466L17.7648 18.3266C17.3148 16.9866 17.7548 15.9666 17.7748 15.9266C17.8448 15.7566 17.8248 15.5566 17.7048 15.4066C17.2048 14.8166 14.6648 11.8766 12.8348 12.2266C12.6948 12.2566 12.5748 12.3466 12.5048 12.4666C11.6848 13.8666 10.1248 15.8966 9.34477 15.7966C7.88477 15.5966 7.14477 15.5866 7.11477 15.5866C6.97477 15.5666 6.82477 15.6466 6.73477 15.7566L5.99477 16.6066L4.87477 16.2866C2.99477 15.9966 1.71477 14.2266 2.01477 12.3566L2.17477 11.3466L2.60477 11.4066C2.76477 11.4366 2.93477 11.3766 3.04477 11.2466C4.10477 10.0466 4.37477 8.52656 3.84477 6.74656C3.87477 6.65656 3.93477 6.55656 4.05477 6.47656C4.16477 6.39656 4.29477 6.31656 4.45477 6.21656C6.89477 5.69656 9.67477 6.54656 11.5148 7.10656C12.1648 7.29656 12.6648 7.45656 13.0248 7.50656C14.3248 7.69656 15.8448 6.43656 16.6348 5.68656L18.2148 8.86656C18.2248 8.88656 18.2448 8.90656 18.2548 8.92656C18.2648 8.94656 18.2748 8.96656 18.2848 8.97656L21.3648 12.4266L21.4348 14.2666C21.4348 14.4066 21.4948 14.5266 21.5948 14.6166L24.0448 16.7566C24.1348 16.8366 24.2548 16.8766 24.3648 16.8766C24.5048 16.8766 24.6348 16.8166 24.7348 16.7066C24.9148 16.4966 24.8948 16.1866 24.6848 16.0166L22.4048 14.0166L22.3348 12.2166C22.3348 12.0966 22.2948 11.9866 22.2148 11.9066L20.7348 10.2466C22.9848 11.0366 25.8548 11.5966 26.3048 11.6766C26.3148 11.6766 26.3148 11.6866 26.3148 11.6866C31.0848 12.4066 37.6048 13.2166 42.6948 13.2166C43.2048 13.2166 43.6948 13.2066 44.1748 13.1966C44.3648 13.1866 44.5348 13.0666 44.6148 12.8866C44.6848 12.7066 44.6448 12.4966 44.5048 12.3566C42.0548 9.86656 36.6248 5.41656 27.7948 3.55656L27.5348 3.01656C28.0548 2.66656 28.2148 2.25656 28.3648 1.84656C39.3248 4.19656 45.0548 10.1866 47.5148 12.7666C47.5848 12.8366 47.6748 12.8866 47.7748 12.9066C47.8648 12.9266 55.0148 14.2566 59.8348 17.5066L59.4848 18.8866C59.1948 19.9866 59.7148 21.1666 60.7248 21.6866L62.0548 22.3666C61.8448 22.8166 61.5248 23.2366 61.0848 23.5766ZM62.4148 21.4366L61.1848 20.8166C60.5848 20.4966 60.2748 19.7966 60.4448 19.1266L60.7048 18.1166C61.4448 18.6966 62.1148 19.3166 62.6548 19.9966C62.6148 20.4566 62.5548 20.9466 62.4148 21.4366Z" stroke="#C60311" mask="url(#path-4-outside-1_250_539)"/>
</svg>
