<svg width="50" height="44" viewBox="0 0 50 44" fill="none" xmlns="http://www.w3.org/2000/svg">
<path d="M27.1895 0.609375C31.2957 0.792102 34.6803 3.66678 35.042 7.36426C35.5606 7.27489 36.0891 7.2305 36.6221 7.23047L37.0449 7.23926C41.3866 7.43566 44.9256 10.6434 44.9258 14.6484L44.9209 14.9043C44.9029 15.3772 44.8329 15.8446 44.7158 16.3027C47.5274 17.5227 49.4004 20.1123 49.4004 22.9814L49.3887 23.3662C49.1706 27.1901 45.7211 30.2006 41.5195 30.3906L41.0967 30.4004H8.90332C4.37137 30.4004 0.599735 27.1158 0.599609 22.9814L0.611328 22.5957C0.833977 18.7017 4.40707 15.6539 8.71289 15.5664C8.56226 15.0034 8.48633 14.4242 8.48633 13.8359L8.49707 13.4512C8.7228 9.5 12.3988 6.41819 16.7891 6.41797C17.4098 6.41797 18.0244 6.47959 18.624 6.60059C19.3741 3.13936 22.7999 0.599624 26.7734 0.599609L27.1895 0.609375ZM26.4434 2.15527C23.1651 2.29715 20.5199 4.53997 20.1562 7.34961L20.1279 7.63184C20.1085 7.8929 19.9539 8.11157 19.7432 8.23535L19.7412 8.23633C19.5312 8.35828 19.2756 8.38466 19.0459 8.31152V8.31055C18.4134 8.10995 17.7535 7.99611 17.0791 7.9707L16.7891 7.96582C13.0712 7.96602 10.1292 10.6426 10.1289 13.8359L10.1367 14.126C10.1736 14.8 10.339 15.4549 10.6318 16.0781L10.6719 16.1816C10.7455 16.4261 10.6856 16.6869 10.5205 16.8799L10.5186 16.8818C10.3564 17.0686 10.1202 17.1665 9.88281 17.167L9.78125 17.1611C9.49225 17.1274 9.19543 17.1105 8.90234 17.1104C5.18434 17.1107 2.24219 19.7881 2.24219 22.9814L2.25098 23.2793C2.42731 26.3396 5.30126 28.8525 8.90332 28.8525H41.0967L41.4434 28.8447C44.9966 28.6847 47.7577 26.0753 47.7578 22.9814L47.7529 22.7559C47.6535 20.5129 46.0747 18.4614 43.6865 17.5713L43.4453 17.4863C43.0556 17.3562 42.7802 16.9345 42.9463 16.4961C43.1695 15.9011 43.2832 15.2797 43.2832 14.6484L43.2754 14.3506C43.0992 11.2904 40.2249 8.77854 36.623 8.77832H36.6221C35.984 8.77826 35.3561 8.85698 34.752 9.0127L34.4941 9.08398C34.2527 9.15557 33.9829 9.11978 33.7695 8.97656L33.7686 8.97559C33.5539 8.83075 33.4109 8.58447 33.4258 8.30664L33.4268 8.30273L33.4346 8.01855C33.4344 4.82485 30.4917 2.14746 26.7734 2.14746L26.4434 2.15527Z" fill="#C60311" stroke="#C60311" stroke-width="0.8"/>
<path d="M25.626 28.9248C25.9788 28.9908 26.2861 29.28 26.2861 29.6855V36.625L26.2812 36.71C26.2416 37.0708 25.9533 37.3245 25.626 37.3857L25.4727 37.4004C25.0595 37.4004 24.6593 37.0885 24.6592 36.625V29.6855L24.6631 29.6006C24.7085 29.1845 25.085 28.9102 25.4727 28.9102L25.626 28.9248ZM33.6631 10.6084C37.3766 10.78 40.4003 13.5823 40.4004 17.0771L40.3955 17.1621C40.35 17.5782 39.973 17.8516 39.5869 17.8516V17.8525C39.1753 17.8525 38.7725 17.5413 38.7725 17.0771L38.7656 16.8271C38.6257 14.3413 36.4104 12.2871 33.5859 12.1572L33.3018 12.1504C32.9159 12.1503 32.5387 11.8767 32.4932 11.46L32.4883 11.375L32.4932 11.29C32.539 10.874 32.9153 10.5996 33.3018 10.5996L33.6631 10.6084ZM19.5479 11.2568C19.9599 11.2565 20.3619 11.5679 20.3623 12.0312L20.3574 12.1172C20.3179 12.4785 20.0287 12.7319 19.7012 12.793L19.5488 12.8076C17.6808 12.8076 16.2277 14.1783 16.2275 15.7832L16.2227 15.8682C16.1774 16.2846 15.7998 16.5576 15.4141 16.5576V16.5586C15.003 16.5586 14.5996 16.2476 14.5996 15.7832L14.6064 15.5479C14.7414 13.1287 16.9414 11.2571 19.5479 11.2568Z" fill="#C60311" stroke="#C60311" stroke-width="0.8"/>
<path d="M22.957 37.9805C24.2349 36.8895 26.2048 36.9263 27.4365 38.0898L27.5537 38.2051C28.6826 39.386 28.6821 41.2017 27.5537 42.3828L27.4365 42.499C26.7983 43.1019 25.9638 43.4004 25.1367 43.4004C24.36 43.4003 23.5777 43.1382 22.957 42.6084L22.8359 42.499C21.5518 41.2856 21.5516 39.3031 22.8359 38.0898L22.957 37.9805ZM24.9805 38.8154C24.6696 38.8435 24.3699 38.9561 24.1201 39.1484L23.999 39.251C23.3884 39.8282 23.3878 40.7593 23.998 41.3369H23.999C24.5851 41.8899 25.5216 41.925 26.1514 41.4414L26.2734 41.3369C26.846 40.7954 26.882 39.9435 26.3809 39.3633L26.2734 39.251C25.9642 38.9585 25.5533 38.8087 25.1367 38.8086L24.9805 38.8154ZM18.8232 29.6035C19.2287 29.6425 19.5761 29.9709 19.5762 30.4102V35.3037L19.5713 35.3896C19.5293 35.7854 19.2016 36.0739 18.8232 36.1104L18.7422 36.1143H13.2686V37.998C13.2683 38.4375 12.9206 38.7647 12.5156 38.8037L12.4346 38.8076C11.996 38.8076 11.5998 38.4668 11.5996 37.998V35.3037C11.5996 34.835 11.9959 34.4932 12.4346 34.4932H17.9082V30.4102C17.9082 29.9416 18.3031 29.5996 18.7422 29.5996L18.8232 29.6035Z" fill="#C60311" stroke="#C60311" stroke-width="0.8"/>
<path d="M11.8936 37.1865C12.765 37.1864 13.591 37.5041 14.2148 38.0869V38.0879L14.332 38.2031C15.4734 39.3844 15.4737 41.2022 14.333 42.3838L14.2148 42.5C13.5912 43.0825 12.7657 43.3995 11.8945 43.3994V43.4004C11.079 43.4004 10.3009 43.121 9.69336 42.6055L9.57422 42.5C8.9493 41.916 8.59972 41.1317 8.59961 40.2939C8.59961 39.5082 8.90733 38.7697 9.46094 38.1992L9.57422 38.0869C10.1974 37.5037 11.0239 37.1866 11.8936 37.1865ZM11.7305 38.8145C11.407 38.8441 11.1068 38.9619 10.8604 39.1514L10.7412 39.252C10.4382 39.5357 10.2773 39.9055 10.2773 40.2939C10.2776 40.6823 10.4385 41.0514 10.7412 41.335L10.8604 41.4355C11.148 41.6567 11.5091 41.7803 11.8945 41.7803C12.3358 41.7802 12.7429 41.6196 13.0479 41.335L13.1562 41.2227C13.6287 40.6815 13.6287 39.9054 13.1562 39.3643L13.0479 39.252C12.7432 38.9675 12.3357 38.8077 11.8945 38.8076L11.7305 38.8145ZM31.1885 29.6006C31.6263 29.6006 32.0273 29.9383 32.0273 30.4102V34.4932H37.5615C37.9989 34.4932 38.4001 34.8308 38.4004 35.3027V37.9971L38.3955 38.084C38.3529 38.482 38.0202 38.7676 37.6426 38.8037L37.5615 38.8076C37.1241 38.8076 36.7227 38.4697 36.7227 37.9971V36.1133H31.1885C30.7515 36.1133 30.3499 35.7761 30.3496 35.3037V30.4102L30.3545 30.3232C30.4002 29.8969 30.7784 29.5996 31.1885 29.5996V29.6006Z" fill="#C60311" stroke="#C60311" stroke-width="0.8"/>
<path d="M38.1689 36.6045C39.0126 36.6455 39.8031 36.9939 40.4043 37.5957L40.5205 37.7188C41.0878 38.3445 41.4004 39.1491 41.4004 40C41.4004 40.8507 41.0876 41.6554 40.5205 42.2812L40.4043 42.4043C39.8031 43.0059 39.0125 43.3546 38.1689 43.3955L38 43.4004C37.149 43.4003 36.3443 43.0889 35.7178 42.5215L35.5947 42.4043C34.2686 41.0781 34.2683 38.9217 35.5947 37.5957L35.7178 37.4785C36.3443 36.9109 37.1489 36.5996 38 36.5996L38.1689 36.6045ZM37.832 38.3174C37.4989 38.3499 37.1875 38.479 36.9287 38.6914L36.8037 38.8047C36.1452 39.4634 36.1451 40.5364 36.8037 41.1953H36.8027C37.1237 41.5155 37.5473 41.6904 38 41.6904C38.452 41.6904 38.876 41.515 39.1953 41.1953L39.3086 41.0713C39.5564 40.7696 39.6904 40.3956 39.6904 40L39.6826 39.832C39.6501 39.4994 39.5208 39.1882 39.3086 38.9297L39.1953 38.8047C38.8762 38.4851 38.4517 38.3096 38 38.3096L37.832 38.3174Z" fill="#C60311" stroke="#C60311" stroke-width="0.8"/>
</svg>
