<svg width="79" height="79" viewBox="0 0 79 79" fill="none" xmlns="http://www.w3.org/2000/svg">
<mask id="path-1-outside-1_250_473" maskUnits="userSpaceOnUse" x="0" y="0" width="79" height="79" fill="black">
<rect fill="white" width="79" height="79"/>
<path d="M23.0703 12.582C23.2191 12.5818 23.3664 12.5522 23.5037 12.4947C24.1645 12.2195 24.8342 11.966 25.5116 11.7346C25.7921 11.636 26.0224 11.4305 26.1522 11.163C26.2821 10.8954 26.3011 10.5874 26.2051 10.3058C26.1091 10.0243 25.9059 9.79214 25.6396 9.65977C25.3733 9.52739 25.0655 9.50556 24.7832 9.59901C24.0588 9.84641 23.3426 10.1175 22.6359 10.4118C22.3953 10.5123 22.1969 10.693 22.0745 10.9233C21.9521 11.1535 21.9131 11.4191 21.9643 11.6748C22.0155 11.9306 22.1536 12.1607 22.3553 12.326C22.5569 12.4914 22.8095 12.5819 23.0703 12.582ZM17.2035 15.7365C17.4272 15.7365 17.6457 15.6697 17.8311 15.5447C18.4263 15.1451 19.0343 14.7649 19.6542 14.4047C19.7834 14.3308 19.8967 14.2322 19.9876 14.1144C20.0785 13.9966 20.1452 13.8619 20.1839 13.7182C20.2226 13.5745 20.2325 13.4245 20.2129 13.277C20.1934 13.1294 20.1449 12.9872 20.0702 12.8585C19.9955 12.7297 19.8961 12.6171 19.7777 12.527C19.6592 12.4369 19.5242 12.3711 19.3802 12.3334C19.2363 12.2957 19.0863 12.2869 18.9389 12.3075C18.7916 12.3281 18.6497 12.3776 18.5216 12.4532C17.8592 12.838 17.2096 13.2442 16.5737 13.6713C16.3729 13.8061 16.2207 14.002 16.1397 14.2299C16.0586 14.4579 16.0529 14.7058 16.1235 14.9372C16.1941 15.1686 16.3371 15.3712 16.5316 15.5151C16.726 15.659 16.9617 15.7367 17.2035 15.7365ZM12.0581 19.9754C12.2065 19.9756 12.3534 19.9465 12.4905 19.8896C12.6275 19.8327 12.752 19.7493 12.8566 19.644C13.3635 19.136 13.8867 18.6445 14.4252 18.1702C14.5364 18.0723 14.6273 17.9535 14.6925 17.8205C14.7578 17.6875 14.7963 17.5429 14.8057 17.395C14.8152 17.2472 14.7954 17.0989 14.7475 16.9587C14.6997 16.8184 14.6247 16.689 14.5268 16.5778C14.429 16.4665 14.3101 16.3757 14.1772 16.3104C14.0442 16.2451 13.8997 16.2066 13.7519 16.1972C13.604 16.1877 13.4558 16.2075 13.3156 16.2554C13.1754 16.3033 13.046 16.3783 12.9348 16.4762C12.3596 16.9827 11.8009 17.5077 11.2595 18.0503C11.102 18.2082 10.9949 18.4093 10.9516 18.6281C10.9083 18.8469 10.9308 19.0736 11.0162 19.2796C11.1017 19.4856 11.2462 19.6616 11.4317 19.7855C11.6171 19.9094 11.8351 19.9754 12.0581 19.9754ZM29.4413 10.6385C29.5159 10.6385 29.5903 10.6311 29.6634 10.6166C30.363 10.4766 31.0771 10.3584 31.7851 10.2647C31.9331 10.2466 32.076 10.1994 32.2056 10.1257C32.3352 10.0521 32.4489 9.95344 32.5402 9.83556C32.6314 9.71767 32.6984 9.58286 32.7373 9.43892C32.7762 9.29497 32.7861 9.14475 32.7666 8.99693C32.7471 8.84911 32.6984 8.70663 32.6235 8.57773C32.5486 8.44882 32.4489 8.33605 32.3302 8.24592C32.2114 8.1558 32.076 8.09011 31.9317 8.05265C31.7874 8.0152 31.6372 8.00672 31.4896 8.02771C30.7297 8.12828 29.9734 8.25366 29.2217 8.40365C28.9474 8.45859 28.7033 8.61353 28.5367 8.83839C28.3702 9.06324 28.2931 9.34197 28.3205 9.62047C28.3479 9.89897 28.4777 10.1574 28.6848 10.3455C28.8919 10.5336 29.1615 10.638 29.4413 10.6385ZM36.075 9.97901H36.1397C36.8355 9.97901 37.5386 10.001 38.2293 10.0443C38.2534 10.0458 38.2772 10.0466 38.3009 10.0466C38.5942 10.0467 38.876 9.9327 39.0866 9.72858C39.2972 9.52446 39.42 9.24632 39.4291 8.95313C39.4381 8.65994 39.3327 8.37475 39.1351 8.15801C38.9375 7.94128 38.6633 7.81004 38.3706 7.79213C37.6278 7.74572 36.8838 7.7225 36.1397 7.72248H36.0712C35.7721 7.72298 35.4854 7.84233 35.2742 8.05427C35.0631 8.26621 34.9447 8.55339 34.9452 8.85262C34.9457 9.15186 35.065 9.43864 35.2769 9.64988C35.4888 9.86111 35.7759 9.97951 36.075 9.97901ZM7.20602 24.9446C7.32919 25.0269 7.46738 25.0842 7.61267 25.113C7.75796 25.1419 7.90752 25.1419 8.05279 25.1129C8.19807 25.0839 8.33622 25.0266 8.45934 24.9442C8.58247 24.8619 8.68816 24.756 8.77038 24.6328C9.16741 24.0378 9.58881 23.4488 10.0233 22.8818C10.2028 22.6442 10.2811 22.3452 10.2411 22.05C10.2011 21.7548 10.046 21.4875 9.80963 21.3062C9.57331 21.125 9.27492 21.0446 8.97957 21.0826C8.68421 21.1206 8.41586 21.2738 8.23304 21.509C7.76652 22.1179 7.31992 22.7419 6.89396 23.3799C6.72793 23.6288 6.66754 23.9335 6.72606 24.2269C6.78458 24.5203 6.95722 24.7785 7.20602 24.9446ZM64.1358 20.7359L62.4406 22.4317V10.2224C62.4406 9.92318 62.3217 9.6362 62.1102 9.42461C61.8987 9.21302 61.6118 9.09415 61.3127 9.09415C61.0135 9.09415 60.7266 9.21302 60.5151 9.42461C60.3036 9.6362 60.1847 9.92318 60.1847 10.2224V22.4317L58.4894 20.7359C58.2778 20.5243 57.9909 20.4055 57.6917 20.4055C57.3926 20.4055 57.1057 20.5244 56.8942 20.736C56.6827 20.9477 56.5638 21.2347 56.5639 21.5339C56.5639 21.8331 56.6828 22.1201 56.8943 22.3317L60.4524 25.8909C60.5582 26.016 60.6899 26.1165 60.8385 26.1855C60.987 26.2545 61.1489 26.2902 61.3127 26.2902C61.4764 26.2902 61.6383 26.2545 61.7868 26.1855C61.9354 26.1165 62.0672 26.016 62.1729 25.8909L65.731 22.3316C65.8365 22.227 65.9203 22.1025 65.9776 21.9655C66.0349 21.8284 66.0645 21.6813 66.0649 21.5327C66.0652 21.3842 66.0362 21.237 65.9795 21.0996C65.9228 20.9623 65.8396 20.8375 65.7346 20.7325C65.6295 20.6274 65.5048 20.5441 65.3675 20.4874C65.2302 20.4307 65.0831 20.4016 64.9345 20.402C64.786 20.4023 64.639 20.4319 64.5019 20.4892C64.3649 20.5466 64.2404 20.6304 64.1358 20.7359ZM78 17.6923C78.0005 14.0142 76.7864 10.4389 74.5463 7.52214C72.3062 4.60538 69.1656 2.51052 65.6126 1.56314C62.0597 0.61576 58.2934 0.868928 54.8991 2.28329C51.5048 3.69766 48.6727 6.19401 46.8428 9.38434C45.9349 9.09427 45.0156 8.84133 44.0871 8.62614C43.9422 8.59108 43.7918 8.58509 43.6446 8.60852C43.4973 8.63195 43.3562 8.68434 43.2294 8.76266C43.1025 8.84098 42.9925 8.94367 42.9055 9.0648C42.8186 9.18593 42.7565 9.3231 42.7229 9.46837C42.6893 9.61364 42.6848 9.76413 42.7097 9.91115C42.7346 10.0582 42.7884 10.1988 42.8679 10.3249C42.9475 10.451 43.0512 10.5601 43.1732 10.6458C43.2952 10.7316 43.4329 10.7923 43.5784 10.8245C44.34 11.0019 45.0949 11.2065 45.8418 11.4379C45.0364 13.4246 44.6232 15.5485 44.6252 17.6923L44.6256 17.7239C41.8925 16.7978 39.0259 16.3272 36.1403 16.3308C21.5089 16.3308 9.60535 28.2373 9.60535 42.8721C9.60535 57.508 21.5089 69.4149 36.1403 69.4149C50.7709 69.4149 62.6737 57.508 62.6737 42.8721C62.6773 39.9856 62.2069 37.1181 61.2811 34.3841L61.3127 34.3846C63.4569 34.3865 65.5811 33.9729 67.568 33.1665C68.8929 37.4635 69.323 41.9866 68.832 46.4564C68.341 50.9262 66.9391 55.2479 64.7131 59.1545C62.487 63.0612 59.484 66.4699 55.8894 69.1703C52.2948 71.8706 48.185 73.8052 43.8137 74.8545C39.4424 75.9039 34.9025 76.0457 30.4743 75.2713C26.0461 74.4969 21.8235 72.8228 18.0675 70.3521C14.3114 67.8815 11.1015 64.6669 8.636 60.9068C6.1705 57.1468 4.50173 52.921 3.73275 48.4906C3.70888 48.3434 3.65609 48.2025 3.57744 48.0759C3.49879 47.9492 3.39583 47.8395 3.27451 47.7529C3.1532 47.6663 3.01594 47.6046 2.87065 47.5714C2.72537 47.5382 2.57495 47.5341 2.42808 47.5594C2.28121 47.5847 2.1408 47.6388 2.01498 47.7187C1.88915 47.7986 1.7804 47.9026 1.695 48.0248C1.6096 48.147 1.54926 48.2849 1.51745 48.4305C1.48564 48.5761 1.483 48.7266 1.50967 48.8733C2.33569 53.6202 4.1284 58.1467 6.7765 62.1715C9.4246 66.1964 12.8716 69.6338 16.9034 72.2702C20.9352 74.9067 25.4657 76.686 30.2138 77.4977C34.9618 78.3093 39.826 78.1359 44.5043 76.9884C49.1825 75.8408 53.575 73.7435 57.409 70.8267C61.243 67.9099 64.4367 64.2359 66.7918 60.0327C69.1468 55.8295 70.6129 51.187 71.0992 46.3933C71.5854 41.5996 71.0812 36.7571 69.6181 32.1664C72.164 30.7038 74.2793 28.5957 75.7509 26.0545C77.2225 23.5134 77.9983 20.629 78 17.6923ZM36.1403 67.1584C22.7528 67.1584 11.8612 56.2636 11.8612 42.8721C11.8612 29.4814 22.7528 18.5874 36.1403 18.5874C39.1047 18.5828 42.0446 19.1257 44.812 20.1889C45.3507 23.7114 46.9997 26.9699 49.5187 29.4897C52.0378 32.0094 55.2953 33.6589 58.8168 34.1977C59.8796 36.966 60.4224 39.9067 60.4178 42.8721C60.4178 56.2636 49.527 67.1584 36.1403 67.1584ZM61.3127 32.128C58.4584 32.128 55.6682 31.2814 53.295 29.6952C50.9217 28.109 49.072 25.8544 47.9797 23.2166C46.8874 20.5788 46.6016 17.6763 47.1585 14.876C47.7153 12.0757 49.0898 9.50352 51.1081 7.48465C53.1263 5.46577 55.6978 4.09089 58.4972 3.53389C61.2966 2.97688 64.1983 3.26275 66.8353 4.35536C69.4724 5.44797 71.7262 7.29824 73.312 9.67219C74.8977 12.0461 75.7441 14.8372 75.7441 17.6923C75.7398 21.5195 74.2179 25.1888 71.5124 27.8951C68.8069 30.6014 65.1388 32.1237 61.3127 32.128ZM44.3451 31.6862C44.3451 31.387 44.2263 31.1 44.0148 30.8884C43.8032 30.6768 43.5164 30.558 43.2172 30.558H29.0624C28.7633 30.558 28.4764 30.6768 28.2649 30.8884C28.0533 31.1 27.9345 31.387 27.9345 31.6862C27.9345 31.9855 28.0533 32.2724 28.2649 32.484C28.4764 32.6956 28.7633 32.8145 29.0624 32.8145H31.6753C33.2223 32.8166 34.7185 33.3669 35.8984 34.3677C37.0783 35.3685 37.8656 36.755 38.1206 38.2813H29.0623C28.7631 38.2813 28.4762 38.4002 28.2647 38.6118C28.0532 38.8234 27.9344 39.1103 27.9344 39.4096C27.9344 39.7088 28.0532 39.9958 28.2647 40.2074C28.4762 40.419 28.7631 40.5378 29.0623 40.5378H38.0997C37.8208 42.0391 37.026 43.3955 35.8528 44.3724C34.6796 45.3493 33.2019 45.8852 31.6755 45.8873H29.1794C29.0338 45.8873 28.8896 45.9155 28.7547 45.9704L28.68 46.0007C28.5096 46.07 28.3587 46.1799 28.2404 46.3209C28.1222 46.4619 28.0403 46.6296 28.0017 46.8095C27.9631 46.9895 27.9692 47.1761 28.0192 47.3531C28.0693 47.5302 28.1619 47.6923 28.289 47.8254L38.5382 58.5591C38.7449 58.7755 39.029 58.9009 39.3281 58.9077C39.6271 58.9146 39.9167 58.8023 40.133 58.5956C40.3493 58.3889 40.4747 58.1048 40.4816 57.8056C40.4884 57.5064 40.3762 57.2168 40.1695 57.0004L31.7125 48.1437C33.8308 48.1318 35.8738 47.3561 37.4665 45.959C39.0592 44.5618 40.0948 42.637 40.3831 40.5377H43.2172C43.5164 40.5377 43.8032 40.4188 44.0148 40.2072C44.2263 39.9956 44.3451 39.7087 44.3451 39.4094C44.3451 39.1102 44.2263 38.8232 44.0148 38.6116C43.8032 38.4 43.5164 38.2812 43.2172 38.2812H40.3981C40.1397 36.1741 39.127 34.2321 37.5473 32.8145H43.2172C43.5164 32.8145 43.8032 32.6956 44.0148 32.484C44.2263 32.2724 44.3451 31.9855 44.3451 31.6862ZM3.25601 42.9158L3.25586 42.8726C3.25586 42.1714 3.27812 41.4614 3.32233 40.7624C3.33957 40.4647 3.23827 40.1723 3.04058 39.9491C2.84289 39.7258 2.56489 39.59 2.26735 39.5712C1.96981 39.5524 1.67694 39.6522 1.45276 39.8488C1.22857 40.0454 1.09131 40.3227 1.07098 40.6203C1.02391 41.3663 1 42.1242 1 42.8842L1.00015 42.9156C1.00015 43.2148 1.11899 43.5018 1.33051 43.7134C1.54204 43.925 1.82893 44.0439 2.12808 44.0439C2.42723 44.0439 2.71412 43.925 2.92565 43.7134C3.13717 43.5018 3.25601 43.215 3.25601 42.9158ZM4.26047 30.9351C4.39734 30.9918 4.54404 31.021 4.69219 31.0209C4.84033 31.0208 4.98701 30.9916 5.12384 30.9347C5.26066 30.8779 5.38493 30.7946 5.48955 30.6897C5.59417 30.5848 5.67709 30.4603 5.73354 30.3233C6.0065 29.6623 6.30503 29.0019 6.62085 28.3604C6.75301 28.0919 6.77315 27.782 6.67683 27.4987C6.58052 27.2154 6.37564 26.9819 6.10727 26.8497C5.83889 26.7175 5.52901 26.6974 5.24579 26.7937C4.96257 26.8901 4.72921 27.095 4.59704 27.3635C4.258 28.0523 3.94166 28.752 3.64853 29.4616C3.59194 29.5985 3.56289 29.7453 3.56302 29.8935C3.56315 30.0417 3.59246 30.1884 3.64929 30.3252C3.70612 30.4621 3.78934 30.5864 3.89421 30.6911C3.99908 30.7957 4.12353 30.8786 4.26047 30.9351ZM2.54872 37.3862C2.69408 37.415 2.84369 37.4147 2.98896 37.3856C3.13424 37.3564 3.27233 37.2988 3.39534 37.2162C3.51834 37.1335 3.62384 37.0274 3.70579 36.9039C3.78774 36.7805 3.84453 36.642 3.87291 36.4965C4.01121 35.7926 4.17252 35.0934 4.35657 34.4001C4.39459 34.2569 4.40403 34.1076 4.38437 33.9607C4.36471 33.8139 4.31632 33.6723 4.24197 33.5442C4.16762 33.416 4.06876 33.3037 3.95105 33.2138C3.83333 33.1239 3.69905 33.058 3.55589 33.02C3.41272 32.982 3.26347 32.9725 3.11666 32.9922C2.96984 33.0118 2.82834 33.0602 2.70022 33.1346C2.57211 33.209 2.45989 33.3079 2.36998 33.4256C2.28007 33.5434 2.21422 33.6777 2.17621 33.8209C1.97953 34.562 1.80714 35.3093 1.65931 36.0616C1.63076 36.207 1.63112 36.3566 1.66037 36.5019C1.68961 36.6471 1.74717 36.7852 1.82976 36.9082C1.91235 37.0312 2.01835 37.1367 2.14171 37.2187C2.26507 37.3007 2.40337 37.3577 2.54872 37.3862Z"/>
</mask>
<path d="M23.0703 12.582C23.2191 12.5818 23.3664 12.5522 23.5037 12.4947C24.1645 12.2195 24.8342 11.966 25.5116 11.7346C25.7921 11.636 26.0224 11.4305 26.1522 11.163C26.2821 10.8954 26.3011 10.5874 26.2051 10.3058C26.1091 10.0243 25.9059 9.79214 25.6396 9.65977C25.3733 9.52739 25.0655 9.50556 24.7832 9.59901C24.0588 9.84641 23.3426 10.1175 22.6359 10.4118C22.3953 10.5123 22.1969 10.693 22.0745 10.9233C21.9521 11.1535 21.9131 11.4191 21.9643 11.6748C22.0155 11.9306 22.1536 12.1607 22.3553 12.326C22.5569 12.4914 22.8095 12.5819 23.0703 12.582ZM17.2035 15.7365C17.4272 15.7365 17.6457 15.6697 17.8311 15.5447C18.4263 15.1451 19.0343 14.7649 19.6542 14.4047C19.7834 14.3308 19.8967 14.2322 19.9876 14.1144C20.0785 13.9966 20.1452 13.8619 20.1839 13.7182C20.2226 13.5745 20.2325 13.4245 20.2129 13.277C20.1934 13.1294 20.1449 12.9872 20.0702 12.8585C19.9955 12.7297 19.8961 12.6171 19.7777 12.527C19.6592 12.4369 19.5242 12.3711 19.3802 12.3334C19.2363 12.2957 19.0863 12.2869 18.9389 12.3075C18.7916 12.3281 18.6497 12.3776 18.5216 12.4532C17.8592 12.838 17.2096 13.2442 16.5737 13.6713C16.3729 13.8061 16.2207 14.002 16.1397 14.2299C16.0586 14.4579 16.0529 14.7058 16.1235 14.9372C16.1941 15.1686 16.3371 15.3712 16.5316 15.5151C16.726 15.659 16.9617 15.7367 17.2035 15.7365ZM12.0581 19.9754C12.2065 19.9756 12.3534 19.9465 12.4905 19.8896C12.6275 19.8327 12.752 19.7493 12.8566 19.644C13.3635 19.136 13.8867 18.6445 14.4252 18.1702C14.5364 18.0723 14.6273 17.9535 14.6925 17.8205C14.7578 17.6875 14.7963 17.5429 14.8057 17.395C14.8152 17.2472 14.7954 17.0989 14.7475 16.9587C14.6997 16.8184 14.6247 16.689 14.5268 16.5778C14.429 16.4665 14.3101 16.3757 14.1772 16.3104C14.0442 16.2451 13.8997 16.2066 13.7519 16.1972C13.604 16.1877 13.4558 16.2075 13.3156 16.2554C13.1754 16.3033 13.046 16.3783 12.9348 16.4762C12.3596 16.9827 11.8009 17.5077 11.2595 18.0503C11.102 18.2082 10.9949 18.4093 10.9516 18.6281C10.9083 18.8469 10.9308 19.0736 11.0162 19.2796C11.1017 19.4856 11.2462 19.6616 11.4317 19.7855C11.6171 19.9094 11.8351 19.9754 12.0581 19.9754ZM29.4413 10.6385C29.5159 10.6385 29.5903 10.6311 29.6634 10.6166C30.363 10.4766 31.0771 10.3584 31.7851 10.2647C31.9331 10.2466 32.076 10.1994 32.2056 10.1257C32.3352 10.0521 32.4489 9.95344 32.5402 9.83556C32.6314 9.71767 32.6984 9.58286 32.7373 9.43892C32.7762 9.29497 32.7861 9.14475 32.7666 8.99693C32.7471 8.84911 32.6984 8.70663 32.6235 8.57773C32.5486 8.44882 32.4489 8.33605 32.3302 8.24592C32.2114 8.1558 32.076 8.09011 31.9317 8.05265C31.7874 8.0152 31.6372 8.00672 31.4896 8.02771C30.7297 8.12828 29.9734 8.25366 29.2217 8.40365C28.9474 8.45859 28.7033 8.61353 28.5367 8.83839C28.3702 9.06324 28.2931 9.34197 28.3205 9.62047C28.3479 9.89897 28.4777 10.1574 28.6848 10.3455C28.8919 10.5336 29.1615 10.638 29.4413 10.6385ZM36.075 9.97901H36.1397C36.8355 9.97901 37.5386 10.001 38.2293 10.0443C38.2534 10.0458 38.2772 10.0466 38.3009 10.0466C38.5942 10.0467 38.876 9.9327 39.0866 9.72858C39.2972 9.52446 39.42 9.24632 39.4291 8.95313C39.4381 8.65994 39.3327 8.37475 39.1351 8.15801C38.9375 7.94128 38.6633 7.81004 38.3706 7.79213C37.6278 7.74572 36.8838 7.7225 36.1397 7.72248H36.0712C35.7721 7.72298 35.4854 7.84233 35.2742 8.05427C35.0631 8.26621 34.9447 8.55339 34.9452 8.85262C34.9457 9.15186 35.065 9.43864 35.2769 9.64988C35.4888 9.86111 35.7759 9.97951 36.075 9.97901ZM7.20602 24.9446C7.32919 25.0269 7.46738 25.0842 7.61267 25.113C7.75796 25.1419 7.90752 25.1419 8.05279 25.1129C8.19807 25.0839 8.33622 25.0266 8.45934 24.9442C8.58247 24.8619 8.68816 24.756 8.77038 24.6328C9.16741 24.0378 9.58881 23.4488 10.0233 22.8818C10.2028 22.6442 10.2811 22.3452 10.2411 22.05C10.2011 21.7548 10.046 21.4875 9.80963 21.3062C9.57331 21.125 9.27492 21.0446 8.97957 21.0826C8.68421 21.1206 8.41586 21.2738 8.23304 21.509C7.76652 22.1179 7.31992 22.7419 6.89396 23.3799C6.72793 23.6288 6.66754 23.9335 6.72606 24.2269C6.78458 24.5203 6.95722 24.7785 7.20602 24.9446ZM64.1358 20.7359L62.4406 22.4317V10.2224C62.4406 9.92318 62.3217 9.6362 62.1102 9.42461C61.8987 9.21302 61.6118 9.09415 61.3127 9.09415C61.0135 9.09415 60.7266 9.21302 60.5151 9.42461C60.3036 9.6362 60.1847 9.92318 60.1847 10.2224V22.4317L58.4894 20.7359C58.2778 20.5243 57.9909 20.4055 57.6917 20.4055C57.3926 20.4055 57.1057 20.5244 56.8942 20.736C56.6827 20.9477 56.5638 21.2347 56.5639 21.5339C56.5639 21.8331 56.6828 22.1201 56.8943 22.3317L60.4524 25.8909C60.5582 26.016 60.6899 26.1165 60.8385 26.1855C60.987 26.2545 61.1489 26.2902 61.3127 26.2902C61.4764 26.2902 61.6383 26.2545 61.7868 26.1855C61.9354 26.1165 62.0672 26.016 62.1729 25.8909L65.731 22.3316C65.8365 22.227 65.9203 22.1025 65.9776 21.9655C66.0349 21.8284 66.0645 21.6813 66.0649 21.5327C66.0652 21.3842 66.0362 21.237 65.9795 21.0996C65.9228 20.9623 65.8396 20.8375 65.7346 20.7325C65.6295 20.6274 65.5048 20.5441 65.3675 20.4874C65.2302 20.4307 65.0831 20.4016 64.9345 20.402C64.786 20.4023 64.639 20.4319 64.5019 20.4892C64.3649 20.5466 64.2404 20.6304 64.1358 20.7359ZM78 17.6923C78.0005 14.0142 76.7864 10.4389 74.5463 7.52214C72.3062 4.60538 69.1656 2.51052 65.6126 1.56314C62.0597 0.61576 58.2934 0.868928 54.8991 2.28329C51.5048 3.69766 48.6727 6.19401 46.8428 9.38434C45.9349 9.09427 45.0156 8.84133 44.0871 8.62614C43.9422 8.59108 43.7918 8.58509 43.6446 8.60852C43.4973 8.63195 43.3562 8.68434 43.2294 8.76266C43.1025 8.84098 42.9925 8.94367 42.9055 9.0648C42.8186 9.18593 42.7565 9.3231 42.7229 9.46837C42.6893 9.61364 42.6848 9.76413 42.7097 9.91115C42.7346 10.0582 42.7884 10.1988 42.8679 10.3249C42.9475 10.451 43.0512 10.5601 43.1732 10.6458C43.2952 10.7316 43.4329 10.7923 43.5784 10.8245C44.34 11.0019 45.0949 11.2065 45.8418 11.4379C45.0364 13.4246 44.6232 15.5485 44.6252 17.6923L44.6256 17.7239C41.8925 16.7978 39.0259 16.3272 36.1403 16.3308C21.5089 16.3308 9.60535 28.2373 9.60535 42.8721C9.60535 57.508 21.5089 69.4149 36.1403 69.4149C50.7709 69.4149 62.6737 57.508 62.6737 42.8721C62.6773 39.9856 62.2069 37.1181 61.2811 34.3841L61.3127 34.3846C63.4569 34.3865 65.5811 33.9729 67.568 33.1665C68.8929 37.4635 69.323 41.9866 68.832 46.4564C68.341 50.9262 66.9391 55.2479 64.7131 59.1545C62.487 63.0612 59.484 66.4699 55.8894 69.1703C52.2948 71.8706 48.185 73.8052 43.8137 74.8545C39.4424 75.9039 34.9025 76.0457 30.4743 75.2713C26.0461 74.4969 21.8235 72.8228 18.0675 70.3521C14.3114 67.8815 11.1015 64.6669 8.636 60.9068C6.1705 57.1468 4.50173 52.921 3.73275 48.4906C3.70888 48.3434 3.65609 48.2025 3.57744 48.0759C3.49879 47.9492 3.39583 47.8395 3.27451 47.7529C3.1532 47.6663 3.01594 47.6046 2.87065 47.5714C2.72537 47.5382 2.57495 47.5341 2.42808 47.5594C2.28121 47.5847 2.1408 47.6388 2.01498 47.7187C1.88915 47.7986 1.7804 47.9026 1.695 48.0248C1.6096 48.147 1.54926 48.2849 1.51745 48.4305C1.48564 48.5761 1.483 48.7266 1.50967 48.8733C2.33569 53.6202 4.1284 58.1467 6.7765 62.1715C9.4246 66.1964 12.8716 69.6338 16.9034 72.2702C20.9352 74.9067 25.4657 76.686 30.2138 77.4977C34.9618 78.3093 39.826 78.1359 44.5043 76.9884C49.1825 75.8408 53.575 73.7435 57.409 70.8267C61.243 67.9099 64.4367 64.2359 66.7918 60.0327C69.1468 55.8295 70.6129 51.187 71.0992 46.3933C71.5854 41.5996 71.0812 36.7571 69.6181 32.1664C72.164 30.7038 74.2793 28.5957 75.7509 26.0545C77.2225 23.5134 77.9983 20.629 78 17.6923ZM36.1403 67.1584C22.7528 67.1584 11.8612 56.2636 11.8612 42.8721C11.8612 29.4814 22.7528 18.5874 36.1403 18.5874C39.1047 18.5828 42.0446 19.1257 44.812 20.1889C45.3507 23.7114 46.9997 26.9699 49.5187 29.4897C52.0378 32.0094 55.2953 33.6589 58.8168 34.1977C59.8796 36.966 60.4224 39.9067 60.4178 42.8721C60.4178 56.2636 49.527 67.1584 36.1403 67.1584ZM61.3127 32.128C58.4584 32.128 55.6682 31.2814 53.295 29.6952C50.9217 28.109 49.072 25.8544 47.9797 23.2166C46.8874 20.5788 46.6016 17.6763 47.1585 14.876C47.7153 12.0757 49.0898 9.50352 51.1081 7.48465C53.1263 5.46577 55.6978 4.09089 58.4972 3.53389C61.2966 2.97688 64.1983 3.26275 66.8353 4.35536C69.4724 5.44797 71.7262 7.29824 73.312 9.67219C74.8977 12.0461 75.7441 14.8372 75.7441 17.6923C75.7398 21.5195 74.2179 25.1888 71.5124 27.8951C68.8069 30.6014 65.1388 32.1237 61.3127 32.128ZM44.3451 31.6862C44.3451 31.387 44.2263 31.1 44.0148 30.8884C43.8032 30.6768 43.5164 30.558 43.2172 30.558H29.0624C28.7633 30.558 28.4764 30.6768 28.2649 30.8884C28.0533 31.1 27.9345 31.387 27.9345 31.6862C27.9345 31.9855 28.0533 32.2724 28.2649 32.484C28.4764 32.6956 28.7633 32.8145 29.0624 32.8145H31.6753C33.2223 32.8166 34.7185 33.3669 35.8984 34.3677C37.0783 35.3685 37.8656 36.755 38.1206 38.2813H29.0623C28.7631 38.2813 28.4762 38.4002 28.2647 38.6118C28.0532 38.8234 27.9344 39.1103 27.9344 39.4096C27.9344 39.7088 28.0532 39.9958 28.2647 40.2074C28.4762 40.419 28.7631 40.5378 29.0623 40.5378H38.0997C37.8208 42.0391 37.026 43.3955 35.8528 44.3724C34.6796 45.3493 33.2019 45.8852 31.6755 45.8873H29.1794C29.0338 45.8873 28.8896 45.9155 28.7547 45.9704L28.68 46.0007C28.5096 46.07 28.3587 46.1799 28.2404 46.3209C28.1222 46.4619 28.0403 46.6296 28.0017 46.8095C27.9631 46.9895 27.9692 47.1761 28.0192 47.3531C28.0693 47.5302 28.1619 47.6923 28.289 47.8254L38.5382 58.5591C38.7449 58.7755 39.029 58.9009 39.3281 58.9077C39.6271 58.9146 39.9167 58.8023 40.133 58.5956C40.3493 58.3889 40.4747 58.1048 40.4816 57.8056C40.4884 57.5064 40.3762 57.2168 40.1695 57.0004L31.7125 48.1437C33.8308 48.1318 35.8738 47.3561 37.4665 45.959C39.0592 44.5618 40.0948 42.637 40.3831 40.5377H43.2172C43.5164 40.5377 43.8032 40.4188 44.0148 40.2072C44.2263 39.9956 44.3451 39.7087 44.3451 39.4094C44.3451 39.1102 44.2263 38.8232 44.0148 38.6116C43.8032 38.4 43.5164 38.2812 43.2172 38.2812H40.3981C40.1397 36.1741 39.127 34.2321 37.5473 32.8145H43.2172C43.5164 32.8145 43.8032 32.6956 44.0148 32.484C44.2263 32.2724 44.3451 31.9855 44.3451 31.6862ZM3.25601 42.9158L3.25586 42.8726C3.25586 42.1714 3.27812 41.4614 3.32233 40.7624C3.33957 40.4647 3.23827 40.1723 3.04058 39.9491C2.84289 39.7258 2.56489 39.59 2.26735 39.5712C1.96981 39.5524 1.67694 39.6522 1.45276 39.8488C1.22857 40.0454 1.09131 40.3227 1.07098 40.6203C1.02391 41.3663 1 42.1242 1 42.8842L1.00015 42.9156C1.00015 43.2148 1.11899 43.5018 1.33051 43.7134C1.54204 43.925 1.82893 44.0439 2.12808 44.0439C2.42723 44.0439 2.71412 43.925 2.92565 43.7134C3.13717 43.5018 3.25601 43.215 3.25601 42.9158ZM4.26047 30.9351C4.39734 30.9918 4.54404 31.021 4.69219 31.0209C4.84033 31.0208 4.98701 30.9916 5.12384 30.9347C5.26066 30.8779 5.38493 30.7946 5.48955 30.6897C5.59417 30.5848 5.67709 30.4603 5.73354 30.3233C6.0065 29.6623 6.30503 29.0019 6.62085 28.3604C6.75301 28.0919 6.77315 27.782 6.67683 27.4987C6.58052 27.2154 6.37564 26.9819 6.10727 26.8497C5.83889 26.7175 5.52901 26.6974 5.24579 26.7937C4.96257 26.8901 4.72921 27.095 4.59704 27.3635C4.258 28.0523 3.94166 28.752 3.64853 29.4616C3.59194 29.5985 3.56289 29.7453 3.56302 29.8935C3.56315 30.0417 3.59246 30.1884 3.64929 30.3252C3.70612 30.4621 3.78934 30.5864 3.89421 30.6911C3.99908 30.7957 4.12353 30.8786 4.26047 30.9351ZM2.54872 37.3862C2.69408 37.415 2.84369 37.4147 2.98896 37.3856C3.13424 37.3564 3.27233 37.2988 3.39534 37.2162C3.51834 37.1335 3.62384 37.0274 3.70579 36.9039C3.78774 36.7805 3.84453 36.642 3.87291 36.4965C4.01121 35.7926 4.17252 35.0934 4.35657 34.4001C4.39459 34.2569 4.40403 34.1076 4.38437 33.9607C4.36471 33.8139 4.31632 33.6723 4.24197 33.5442C4.16762 33.416 4.06876 33.3037 3.95105 33.2138C3.83333 33.1239 3.69905 33.058 3.55589 33.02C3.41272 32.982 3.26347 32.9725 3.11666 32.9922C2.96984 33.0118 2.82834 33.0602 2.70022 33.1346C2.57211 33.209 2.45989 33.3079 2.36998 33.4256C2.28007 33.5434 2.21422 33.6777 2.17621 33.8209C1.97953 34.562 1.80714 35.3093 1.65931 36.0616C1.63076 36.207 1.63112 36.3566 1.66037 36.5019C1.68961 36.6471 1.74717 36.7852 1.82976 36.9082C1.91235 37.0312 2.01835 37.1367 2.14171 37.2187C2.26507 37.3007 2.40337 37.3577 2.54872 37.3862Z" fill="#C60311"/>
<path d="M23.0703 12.582C23.2191 12.5818 23.3664 12.5522 23.5037 12.4947C24.1645 12.2195 24.8342 11.966 25.5116 11.7346C25.7921 11.636 26.0224 11.4305 26.1522 11.163C26.2821 10.8954 26.3011 10.5874 26.2051 10.3058C26.1091 10.0243 25.9059 9.79214 25.6396 9.65977C25.3733 9.52739 25.0655 9.50556 24.7832 9.59901C24.0588 9.84641 23.3426 10.1175 22.6359 10.4118C22.3953 10.5123 22.1969 10.693 22.0745 10.9233C21.9521 11.1535 21.9131 11.4191 21.9643 11.6748C22.0155 11.9306 22.1536 12.1607 22.3553 12.326C22.5569 12.4914 22.8095 12.5819 23.0703 12.582ZM17.2035 15.7365C17.4272 15.7365 17.6457 15.6697 17.8311 15.5447C18.4263 15.1451 19.0343 14.7649 19.6542 14.4047C19.7834 14.3308 19.8967 14.2322 19.9876 14.1144C20.0785 13.9966 20.1452 13.8619 20.1839 13.7182C20.2226 13.5745 20.2325 13.4245 20.2129 13.277C20.1934 13.1294 20.1449 12.9872 20.0702 12.8585C19.9955 12.7297 19.8961 12.6171 19.7777 12.527C19.6592 12.4369 19.5242 12.3711 19.3802 12.3334C19.2363 12.2957 19.0863 12.2869 18.9389 12.3075C18.7916 12.3281 18.6497 12.3776 18.5216 12.4532C17.8592 12.838 17.2096 13.2442 16.5737 13.6713C16.3729 13.8061 16.2207 14.002 16.1397 14.2299C16.0586 14.4579 16.0529 14.7058 16.1235 14.9372C16.1941 15.1686 16.3371 15.3712 16.5316 15.5151C16.726 15.659 16.9617 15.7367 17.2035 15.7365ZM12.0581 19.9754C12.2065 19.9756 12.3534 19.9465 12.4905 19.8896C12.6275 19.8327 12.752 19.7493 12.8566 19.644C13.3635 19.136 13.8867 18.6445 14.4252 18.1702C14.5364 18.0723 14.6273 17.9535 14.6925 17.8205C14.7578 17.6875 14.7963 17.5429 14.8057 17.395C14.8152 17.2472 14.7954 17.0989 14.7475 16.9587C14.6997 16.8184 14.6247 16.689 14.5268 16.5778C14.429 16.4665 14.3101 16.3757 14.1772 16.3104C14.0442 16.2451 13.8997 16.2066 13.7519 16.1972C13.604 16.1877 13.4558 16.2075 13.3156 16.2554C13.1754 16.3033 13.046 16.3783 12.9348 16.4762C12.3596 16.9827 11.8009 17.5077 11.2595 18.0503C11.102 18.2082 10.9949 18.4093 10.9516 18.6281C10.9083 18.8469 10.9308 19.0736 11.0162 19.2796C11.1017 19.4856 11.2462 19.6616 11.4317 19.7855C11.6171 19.9094 11.8351 19.9754 12.0581 19.9754ZM29.4413 10.6385C29.5159 10.6385 29.5903 10.6311 29.6634 10.6166C30.363 10.4766 31.0771 10.3584 31.7851 10.2647C31.9331 10.2466 32.076 10.1994 32.2056 10.1257C32.3352 10.0521 32.4489 9.95344 32.5402 9.83556C32.6314 9.71767 32.6984 9.58286 32.7373 9.43892C32.7762 9.29497 32.7861 9.14475 32.7666 8.99693C32.7471 8.84911 32.6984 8.70663 32.6235 8.57773C32.5486 8.44882 32.4489 8.33605 32.3302 8.24592C32.2114 8.1558 32.076 8.09011 31.9317 8.05265C31.7874 8.0152 31.6372 8.00672 31.4896 8.02771C30.7297 8.12828 29.9734 8.25366 29.2217 8.40365C28.9474 8.45859 28.7033 8.61353 28.5367 8.83839C28.3702 9.06324 28.2931 9.34197 28.3205 9.62047C28.3479 9.89897 28.4777 10.1574 28.6848 10.3455C28.8919 10.5336 29.1615 10.638 29.4413 10.6385ZM36.075 9.97901H36.1397C36.8355 9.97901 37.5386 10.001 38.2293 10.0443C38.2534 10.0458 38.2772 10.0466 38.3009 10.0466C38.5942 10.0467 38.876 9.9327 39.0866 9.72858C39.2972 9.52446 39.42 9.24632 39.4291 8.95313C39.4381 8.65994 39.3327 8.37475 39.1351 8.15801C38.9375 7.94128 38.6633 7.81004 38.3706 7.79213C37.6278 7.74572 36.8838 7.7225 36.1397 7.72248H36.0712C35.7721 7.72298 35.4854 7.84233 35.2742 8.05427C35.0631 8.26621 34.9447 8.55339 34.9452 8.85262C34.9457 9.15186 35.065 9.43864 35.2769 9.64988C35.4888 9.86111 35.7759 9.97951 36.075 9.97901ZM7.20602 24.9446C7.32919 25.0269 7.46738 25.0842 7.61267 25.113C7.75796 25.1419 7.90752 25.1419 8.05279 25.1129C8.19807 25.0839 8.33622 25.0266 8.45934 24.9442C8.58247 24.8619 8.68816 24.756 8.77038 24.6328C9.16741 24.0378 9.58881 23.4488 10.0233 22.8818C10.2028 22.6442 10.2811 22.3452 10.2411 22.05C10.2011 21.7548 10.046 21.4875 9.80963 21.3062C9.57331 21.125 9.27492 21.0446 8.97957 21.0826C8.68421 21.1206 8.41586 21.2738 8.23304 21.509C7.76652 22.1179 7.31992 22.7419 6.89396 23.3799C6.72793 23.6288 6.66754 23.9335 6.72606 24.2269C6.78458 24.5203 6.95722 24.7785 7.20602 24.9446ZM64.1358 20.7359L62.4406 22.4317V10.2224C62.4406 9.92318 62.3217 9.6362 62.1102 9.42461C61.8987 9.21302 61.6118 9.09415 61.3127 9.09415C61.0135 9.09415 60.7266 9.21302 60.5151 9.42461C60.3036 9.6362 60.1847 9.92318 60.1847 10.2224V22.4317L58.4894 20.7359C58.2778 20.5243 57.9909 20.4055 57.6917 20.4055C57.3926 20.4055 57.1057 20.5244 56.8942 20.736C56.6827 20.9477 56.5638 21.2347 56.5639 21.5339C56.5639 21.8331 56.6828 22.1201 56.8943 22.3317L60.4524 25.8909C60.5582 26.016 60.6899 26.1165 60.8385 26.1855C60.987 26.2545 61.1489 26.2902 61.3127 26.2902C61.4764 26.2902 61.6383 26.2545 61.7868 26.1855C61.9354 26.1165 62.0672 26.016 62.1729 25.8909L65.731 22.3316C65.8365 22.227 65.9203 22.1025 65.9776 21.9655C66.0349 21.8284 66.0645 21.6813 66.0649 21.5327C66.0652 21.3842 66.0362 21.237 65.9795 21.0996C65.9228 20.9623 65.8396 20.8375 65.7346 20.7325C65.6295 20.6274 65.5048 20.5441 65.3675 20.4874C65.2302 20.4307 65.0831 20.4016 64.9345 20.402C64.786 20.4023 64.639 20.4319 64.5019 20.4892C64.3649 20.5466 64.2404 20.6304 64.1358 20.7359ZM78 17.6923C78.0005 14.0142 76.7864 10.4389 74.5463 7.52214C72.3062 4.60538 69.1656 2.51052 65.6126 1.56314C62.0597 0.61576 58.2934 0.868928 54.8991 2.28329C51.5048 3.69766 48.6727 6.19401 46.8428 9.38434C45.9349 9.09427 45.0156 8.84133 44.0871 8.62614C43.9422 8.59108 43.7918 8.58509 43.6446 8.60852C43.4973 8.63195 43.3562 8.68434 43.2294 8.76266C43.1025 8.84098 42.9925 8.94367 42.9055 9.0648C42.8186 9.18593 42.7565 9.3231 42.7229 9.46837C42.6893 9.61364 42.6848 9.76413 42.7097 9.91115C42.7346 10.0582 42.7884 10.1988 42.8679 10.3249C42.9475 10.451 43.0512 10.5601 43.1732 10.6458C43.2952 10.7316 43.4329 10.7923 43.5784 10.8245C44.34 11.0019 45.0949 11.2065 45.8418 11.4379C45.0364 13.4246 44.6232 15.5485 44.6252 17.6923L44.6256 17.7239C41.8925 16.7978 39.0259 16.3272 36.1403 16.3308C21.5089 16.3308 9.60535 28.2373 9.60535 42.8721C9.60535 57.508 21.5089 69.4149 36.1403 69.4149C50.7709 69.4149 62.6737 57.508 62.6737 42.8721C62.6773 39.9856 62.2069 37.1181 61.2811 34.3841L61.3127 34.3846C63.4569 34.3865 65.5811 33.9729 67.568 33.1665C68.8929 37.4635 69.323 41.9866 68.832 46.4564C68.341 50.9262 66.9391 55.2479 64.7131 59.1545C62.487 63.0612 59.484 66.4699 55.8894 69.1703C52.2948 71.8706 48.185 73.8052 43.8137 74.8545C39.4424 75.9039 34.9025 76.0457 30.4743 75.2713C26.0461 74.4969 21.8235 72.8228 18.0675 70.3521C14.3114 67.8815 11.1015 64.6669 8.636 60.9068C6.1705 57.1468 4.50173 52.921 3.73275 48.4906C3.70888 48.3434 3.65609 48.2025 3.57744 48.0759C3.49879 47.9492 3.39583 47.8395 3.27451 47.7529C3.1532 47.6663 3.01594 47.6046 2.87065 47.5714C2.72537 47.5382 2.57495 47.5341 2.42808 47.5594C2.28121 47.5847 2.1408 47.6388 2.01498 47.7187C1.88915 47.7986 1.7804 47.9026 1.695 48.0248C1.6096 48.147 1.54926 48.2849 1.51745 48.4305C1.48564 48.5761 1.483 48.7266 1.50967 48.8733C2.33569 53.6202 4.1284 58.1467 6.7765 62.1715C9.4246 66.1964 12.8716 69.6338 16.9034 72.2702C20.9352 74.9067 25.4657 76.686 30.2138 77.4977C34.9618 78.3093 39.826 78.1359 44.5043 76.9884C49.1825 75.8408 53.575 73.7435 57.409 70.8267C61.243 67.9099 64.4367 64.2359 66.7918 60.0327C69.1468 55.8295 70.6129 51.187 71.0992 46.3933C71.5854 41.5996 71.0812 36.7571 69.6181 32.1664C72.164 30.7038 74.2793 28.5957 75.7509 26.0545C77.2225 23.5134 77.9983 20.629 78 17.6923ZM36.1403 67.1584C22.7528 67.1584 11.8612 56.2636 11.8612 42.8721C11.8612 29.4814 22.7528 18.5874 36.1403 18.5874C39.1047 18.5828 42.0446 19.1257 44.812 20.1889C45.3507 23.7114 46.9997 26.9699 49.5187 29.4897C52.0378 32.0094 55.2953 33.6589 58.8168 34.1977C59.8796 36.966 60.4224 39.9067 60.4178 42.8721C60.4178 56.2636 49.527 67.1584 36.1403 67.1584ZM61.3127 32.128C58.4584 32.128 55.6682 31.2814 53.295 29.6952C50.9217 28.109 49.072 25.8544 47.9797 23.2166C46.8874 20.5788 46.6016 17.6763 47.1585 14.876C47.7153 12.0757 49.0898 9.50352 51.1081 7.48465C53.1263 5.46577 55.6978 4.09089 58.4972 3.53389C61.2966 2.97688 64.1983 3.26275 66.8353 4.35536C69.4724 5.44797 71.7262 7.29824 73.312 9.67219C74.8977 12.0461 75.7441 14.8372 75.7441 17.6923C75.7398 21.5195 74.2179 25.1888 71.5124 27.8951C68.8069 30.6014 65.1388 32.1237 61.3127 32.128ZM44.3451 31.6862C44.3451 31.387 44.2263 31.1 44.0148 30.8884C43.8032 30.6768 43.5164 30.558 43.2172 30.558H29.0624C28.7633 30.558 28.4764 30.6768 28.2649 30.8884C28.0533 31.1 27.9345 31.387 27.9345 31.6862C27.9345 31.9855 28.0533 32.2724 28.2649 32.484C28.4764 32.6956 28.7633 32.8145 29.0624 32.8145H31.6753C33.2223 32.8166 34.7185 33.3669 35.8984 34.3677C37.0783 35.3685 37.8656 36.755 38.1206 38.2813H29.0623C28.7631 38.2813 28.4762 38.4002 28.2647 38.6118C28.0532 38.8234 27.9344 39.1103 27.9344 39.4096C27.9344 39.7088 28.0532 39.9958 28.2647 40.2074C28.4762 40.419 28.7631 40.5378 29.0623 40.5378H38.0997C37.8208 42.0391 37.026 43.3955 35.8528 44.3724C34.6796 45.3493 33.2019 45.8852 31.6755 45.8873H29.1794C29.0338 45.8873 28.8896 45.9155 28.7547 45.9704L28.68 46.0007C28.5096 46.07 28.3587 46.1799 28.2404 46.3209C28.1222 46.4619 28.0403 46.6296 28.0017 46.8095C27.9631 46.9895 27.9692 47.1761 28.0192 47.3531C28.0693 47.5302 28.1619 47.6923 28.289 47.8254L38.5382 58.5591C38.7449 58.7755 39.029 58.9009 39.3281 58.9077C39.6271 58.9146 39.9167 58.8023 40.133 58.5956C40.3493 58.3889 40.4747 58.1048 40.4816 57.8056C40.4884 57.5064 40.3762 57.2168 40.1695 57.0004L31.7125 48.1437C33.8308 48.1318 35.8738 47.3561 37.4665 45.959C39.0592 44.5618 40.0948 42.637 40.3831 40.5377H43.2172C43.5164 40.5377 43.8032 40.4188 44.0148 40.2072C44.2263 39.9956 44.3451 39.7087 44.3451 39.4094C44.3451 39.1102 44.2263 38.8232 44.0148 38.6116C43.8032 38.4 43.5164 38.2812 43.2172 38.2812H40.3981C40.1397 36.1741 39.127 34.2321 37.5473 32.8145H43.2172C43.5164 32.8145 43.8032 32.6956 44.0148 32.484C44.2263 32.2724 44.3451 31.9855 44.3451 31.6862ZM3.25601 42.9158L3.25586 42.8726C3.25586 42.1714 3.27812 41.4614 3.32233 40.7624C3.33957 40.4647 3.23827 40.1723 3.04058 39.9491C2.84289 39.7258 2.56489 39.59 2.26735 39.5712C1.96981 39.5524 1.67694 39.6522 1.45276 39.8488C1.22857 40.0454 1.09131 40.3227 1.07098 40.6203C1.02391 41.3663 1 42.1242 1 42.8842L1.00015 42.9156C1.00015 43.2148 1.11899 43.5018 1.33051 43.7134C1.54204 43.925 1.82893 44.0439 2.12808 44.0439C2.42723 44.0439 2.71412 43.925 2.92565 43.7134C3.13717 43.5018 3.25601 43.215 3.25601 42.9158ZM4.26047 30.9351C4.39734 30.9918 4.54404 31.021 4.69219 31.0209C4.84033 31.0208 4.98701 30.9916 5.12384 30.9347C5.26066 30.8779 5.38493 30.7946 5.48955 30.6897C5.59417 30.5848 5.67709 30.4603 5.73354 30.3233C6.0065 29.6623 6.30503 29.0019 6.62085 28.3604C6.75301 28.0919 6.77315 27.782 6.67683 27.4987C6.58052 27.2154 6.37564 26.9819 6.10727 26.8497C5.83889 26.7175 5.52901 26.6974 5.24579 26.7937C4.96257 26.8901 4.72921 27.095 4.59704 27.3635C4.258 28.0523 3.94166 28.752 3.64853 29.4616C3.59194 29.5985 3.56289 29.7453 3.56302 29.8935C3.56315 30.0417 3.59246 30.1884 3.64929 30.3252C3.70612 30.4621 3.78934 30.5864 3.89421 30.6911C3.99908 30.7957 4.12353 30.8786 4.26047 30.9351ZM2.54872 37.3862C2.69408 37.415 2.84369 37.4147 2.98896 37.3856C3.13424 37.3564 3.27233 37.2988 3.39534 37.2162C3.51834 37.1335 3.62384 37.0274 3.70579 36.9039C3.78774 36.7805 3.84453 36.642 3.87291 36.4965C4.01121 35.7926 4.17252 35.0934 4.35657 34.4001C4.39459 34.2569 4.40403 34.1076 4.38437 33.9607C4.36471 33.8139 4.31632 33.6723 4.24197 33.5442C4.16762 33.416 4.06876 33.3037 3.95105 33.2138C3.83333 33.1239 3.69905 33.058 3.55589 33.02C3.41272 32.982 3.26347 32.9725 3.11666 32.9922C2.96984 33.0118 2.82834 33.0602 2.70022 33.1346C2.57211 33.209 2.45989 33.3079 2.36998 33.4256C2.28007 33.5434 2.21422 33.6777 2.17621 33.8209C1.97953 34.562 1.80714 35.3093 1.65931 36.0616C1.63076 36.207 1.63112 36.3566 1.66037 36.5019C1.68961 36.6471 1.74717 36.7852 1.82976 36.9082C1.91235 37.0312 2.01835 37.1367 2.14171 37.2187C2.26507 37.3007 2.40337 37.3577 2.54872 37.3862Z" stroke="#C60311" stroke-width="2" mask="url(#path-1-outside-1_250_473)"/>
</svg>
