<svg width="15" height="19" viewBox="0 0 15 19" fill="none" xmlns="http://www.w3.org/2000/svg">
<path d="M7.49992 10.223C8.09899 10.2221 8.68906 10.0772 9.22039 9.80045C9.75172 9.52373 10.2087 9.12333 10.5529 8.633C10.5589 8.625 10.5679 8.622 10.5739 8.614L10.5809 8.599C11.0541 7.90961 11.2827 7.08158 11.2302 6.24708C11.1777 5.41258 10.8471 4.61973 10.2912 3.99509C9.7354 3.37045 8.98631 2.95003 8.16356 2.80095C7.34081 2.65186 6.49183 2.78271 5.75215 3.1726C5.01247 3.56248 4.42472 4.18894 4.08274 4.95195C3.74076 5.71497 3.66426 6.57056 3.86545 7.38214C4.06664 8.19372 4.53392 8.91451 5.1927 9.42944C5.85148 9.94437 6.66377 10.2238 7.49992 10.223ZM10.2449 6.478C10.2445 6.86684 10.161 7.2511 9.99992 7.605L7.99992 6.216V3.783C8.6297 3.89986 9.19882 4.23321 9.60878 4.72535C10.0188 5.21749 10.2438 5.83747 10.2449 6.478ZM6.99992 3.783V6.478C7.00005 6.55861 7.01967 6.63799 7.05711 6.70938C7.09455 6.78077 7.14869 6.84205 7.21492 6.888L9.42892 8.427C9.1241 8.72974 8.75244 8.95664 8.34387 9.08944C7.93531 9.22223 7.50126 9.2572 7.0767 9.19154C6.65214 9.12587 6.24895 8.9614 5.89959 8.71137C5.55024 8.46134 5.26449 8.13275 5.06538 7.75208C4.86627 7.3714 4.75936 6.94927 4.75326 6.51971C4.74716 6.09014 4.84205 5.66515 5.03027 5.27898C5.2185 4.8928 5.4948 4.55623 5.83692 4.29639C6.17903 4.03654 6.5774 3.86069 6.99992 3.783ZM3.14392 12.373C3.14392 12.2404 3.1966 12.1132 3.29037 12.0194C3.38414 11.9257 3.51131 11.873 3.64392 11.873H7.49992C7.63253 11.873 7.75971 11.9257 7.85348 12.0194C7.94724 12.1132 7.99992 12.2404 7.99992 12.373C7.99992 12.5056 7.94724 12.6328 7.85348 12.7266C7.75971 12.8203 7.63253 12.873 7.49992 12.873H3.64392C3.57826 12.873 3.51324 12.8601 3.45258 12.8349C3.39192 12.8098 3.3368 12.773 3.29037 12.7266C3.24394 12.6801 3.20711 12.625 3.18198 12.5643C3.15685 12.5037 3.14392 12.4387 3.14392 12.373ZM11.8559 14.173C11.8559 14.3056 11.8032 14.4328 11.7095 14.5266C11.6157 14.6203 11.4885 14.673 11.3559 14.673H3.64392C3.51131 14.673 3.38414 14.6203 3.29037 14.5266C3.1966 14.4328 3.14392 14.3056 3.14392 14.173C3.14392 14.0404 3.1966 13.9132 3.29037 13.8194C3.38414 13.7257 3.51131 13.673 3.64392 13.673H11.3559C11.4878 13.673 11.6144 13.7251 11.7081 13.818C11.8017 13.9109 11.8549 14.0371 11.8559 14.169V14.173ZM11.8559 15.973C11.8559 16.1056 11.8032 16.2328 11.7095 16.3266C11.6157 16.4203 11.4885 16.473 11.3559 16.473H3.64392C3.51131 16.473 3.38414 16.4203 3.29037 16.3266C3.1966 16.2328 3.14392 16.1056 3.14392 15.973C3.14392 15.8404 3.1966 15.7132 3.29037 15.6194C3.38414 15.5257 3.51131 15.473 3.64392 15.473H11.3559C11.4872 15.473 11.6131 15.5246 11.7067 15.6166C11.8002 15.7087 11.8538 15.8338 11.8559 15.965V15.973ZM14.7909 3.289C14.7657 3.22772 14.7286 3.172 14.6819 3.125L11.7149 0.149C11.6688 0.101455 11.6133 0.0639993 11.5519 0.039C11.4911 0.0134656 11.4259 0.000211165 11.3599 0H1.66992C1.2721 0 0.890566 0.158035 0.609262 0.43934C0.327957 0.720644 0.169922 1.10218 0.169922 1.5V17.5C0.169922 17.8978 0.327957 18.2794 0.609262 18.5607C0.890566 18.842 1.2721 19 1.66992 19H13.3299C13.7277 19 14.1093 18.842 14.3906 18.5607C14.6719 18.2794 14.8299 17.8978 14.8299 17.5V3.48C14.8301 3.41434 14.8168 3.34933 14.7909 3.289ZM11.8599 1.71L13.1259 2.98H12.3599C12.2273 2.98 12.1001 2.92732 12.0064 2.83355C11.9126 2.73979 11.8599 2.61261 11.8599 2.48V1.71ZM13.3299 18H1.66992C1.53731 18 1.41014 17.9473 1.31637 17.8536C1.2226 17.7598 1.16992 17.6326 1.16992 17.5V1.5C1.16992 1.36739 1.2226 1.24021 1.31637 1.14645C1.41014 1.05268 1.53731 1 1.66992 1H10.8599V2.48C10.8599 2.87782 11.018 3.25936 11.2993 3.54066C11.5806 3.82196 11.9621 3.98 12.3599 3.98H13.8299V17.5C13.8299 17.6326 13.7772 17.7598 13.6835 17.8536C13.5897 17.9473 13.4625 18 13.3299 18Z" fill="#C60311"/>
</svg>
