<svg width="18" height="17" viewBox="0 0 36 34" fill="none" xmlns="http://www.w3.org/2000/svg">
<path d="M32 1.9004C33.1452 1.9004 34.0996 2.8548 34.0996 4V24C34.0996 25.1452 33.1452 26.0996 32 26.0996H22.1152V29.9004H26.0996V32.0996H9.9004V29.9004H13.9004V26.0996H4C2.8548 26.0996 1.9004 25.1452 1.9004 24V4C1.9004 2.8548 2.8548 1.9004 4 1.9004H32ZM16.0996 29.9004H19.916V26.0996H16.0996V29.9004ZM4.0996 23.9004H31.9004V4.0996H4.0996V23.9004ZM28 5.9004C29.1452 5.9004 30.0996 6.8548 30.0996 8V20C30.0996 21.1452 29.1452 22.0996 28 22.0996H8C6.8548 22.0996 5.9004 21.1452 5.9004 20V8C5.9004 6.8548 6.8548 5.9004 8 5.9004H28ZM8.0996 19.9004H27.9004V8.0996H8.0996V19.9004Z" fill="#C60311" stroke="#C60311" stroke-width="0.1"/>
</svg>
