<svg width="42" height="41" viewBox="0 0 42 41" fill="none" xmlns="http://www.w3.org/2000/svg">
<path d="M34.9409 0.416992C36.1168 0.416417 37.2694 0.763991 38.2476 1.41699C39.2257 2.07001 39.9886 2.99852 40.439 4.08496C40.8892 5.17137 41.0071 6.36706 40.7778 7.52051C40.5485 8.67407 39.9816 9.73382 39.1499 10.5654L39.0767 10.6387H39.0737L32.813 16.8994L35.6792 33.125L35.7026 33.3252C35.714 33.5254 35.6886 33.7265 35.6284 33.9189C35.5681 34.1117 35.4738 34.2919 35.3501 34.4502L35.2173 34.6006L31.1929 38.625C30.9922 38.8262 30.7433 38.9733 30.4702 39.0518C30.1971 39.1302 29.9082 39.1382 29.6313 39.0742C29.3545 39.0103 29.0982 38.8768 28.8872 38.6865C28.6763 38.4963 28.5174 38.2551 28.4253 37.9863V37.9854L24.1792 25.5303L18.0269 31.6816L18.5356 34.1348L18.5649 34.3398C18.5813 34.5463 18.5586 34.7547 18.4985 34.9541C18.4186 35.2197 18.2732 35.4605 18.0767 35.6562L18.0776 35.6572L14.0474 39.6816C13.8533 39.8752 13.6143 40.0179 13.3521 40.0977C13.0897 40.1774 12.8115 40.1916 12.5425 40.1387C12.2736 40.0858 12.0216 39.9679 11.8091 39.7949C11.6497 39.6652 11.5163 39.5073 11.4146 39.3301L11.3237 39.1465L8.60693 32.6934L2.15576 29.9814C1.90245 29.8753 1.67891 29.708 1.50537 29.4951C1.33199 29.2823 1.21353 29.0301 1.16064 28.7607C1.10773 28.4912 1.12247 28.2129 1.20264 27.9502C1.26272 27.7533 1.35788 27.5695 1.48389 27.4082L1.62061 27.2539L5.64502 23.2305L5.80029 23.0918C5.96407 22.9642 6.15096 22.8682 6.35107 22.8086C6.618 22.7292 6.90083 22.718 7.17334 22.7754L9.65088 23.2959L15.7603 17.1504L3.28564 12.9395C3.01494 12.849 2.77189 12.6904 2.57959 12.4795C2.38726 12.2685 2.25207 12.0114 2.18701 11.7334C2.12207 11.4556 2.12893 11.1658 2.20752 10.8916C2.28621 10.6174 2.43391 10.3672 2.63623 10.166L6.65771 6.1416H6.65869L6.80908 6.00781C6.96764 5.88386 7.14814 5.7898 7.34131 5.72949C7.5988 5.64912 7.87176 5.63172 8.13721 5.67969H8.13623L24.3325 8.5625L30.7397 2.16309V2.16211L30.9604 1.95312C32.0855 0.93855 33.5168 0.416016 34.9409 0.416016V0.416992ZM34.6851 3.77441C34.4314 3.79922 34.1819 3.86144 33.9458 3.95996C33.6311 4.09133 33.3454 4.28445 33.106 4.52734L33.105 4.52832L26.0864 11.5439V11.5449C25.8955 11.7353 25.6612 11.8766 25.4038 11.957C25.1465 12.0374 24.8732 12.0537 24.6079 12.0059V12.0068L8.40967 9.12305L6.90869 10.624L19.3755 14.8359L19.5718 14.917C19.7628 15.0099 19.9349 15.1387 20.0786 15.2969C20.2702 15.5078 20.4046 15.7645 20.4692 16.042C20.5339 16.3195 20.5272 16.6089 20.4487 16.8828C20.3703 17.1563 20.2225 17.4045 20.021 17.6055L20.022 17.6064L11.3696 26.2988L11.3687 26.2979C11.1723 26.4954 10.9304 26.6416 10.6636 26.7217C10.4632 26.7817 10.2536 26.8031 10.0464 26.7861L9.84033 26.7568L7.36572 26.2344L5.73682 27.8594L10.5259 29.873L10.6733 29.9434C10.9605 30.0977 11.1966 30.3326 11.3521 30.6191L11.4224 30.7666L13.4331 35.5576L15.0659 33.9248L14.5591 31.4785V31.4775C14.5032 31.2057 14.5162 30.924 14.5962 30.6582C14.6762 30.3926 14.8206 30.1508 15.0171 29.9551L23.7153 21.2637V21.2627L23.8745 21.123C24.0418 20.9939 24.2326 20.8974 24.437 20.8389C24.7097 20.7609 24.9976 20.7535 25.2739 20.8174C25.5503 20.8813 25.8063 21.0143 26.0171 21.2041C26.1752 21.3465 26.3044 21.5173 26.3979 21.707L26.479 21.9023V21.9033L30.7241 34.3594L32.2319 32.8506L29.3638 16.626L29.3403 16.4258C29.3289 16.2246 29.3538 16.0224 29.4146 15.8291C29.4955 15.5716 29.6375 15.3372 29.8286 15.1465L36.7729 8.19922L36.7759 8.19727L36.9497 8.00977C37.114 7.81445 37.2484 7.5953 37.3481 7.35938C37.4812 7.04463 37.5501 6.70597 37.5503 6.36426L37.5376 6.10938C37.5123 5.85521 37.4496 5.60542 37.3501 5.36914C37.2175 5.05427 37.0224 4.76885 36.7778 4.53027L36.7759 4.52832C36.2579 4.01045 35.605 3.76182 34.9409 3.76172H34.9399L34.6851 3.77441Z" fill="#C60311" stroke="#C60311" stroke-width="0.5"/>
</svg>
